<svg id="Layer_1" data-name="Layer 1" xmlns="http://www.w3.org/2000/svg" preserveAspectRatio = "none" viewBox="0 0 193.89 330.67"><defs><style>.cls-1{fill:#fff;}</style></defs><path class="cls-1" d="M0,5A158,158,0,0,1,24.41,1.08C32.55.35,40.69,0,48.83,0S65.11.33,73.24,1.07A156.72,156.72,0,0,1,97.66,5,156.72,156.72,0,0,1,73.24,8.93C65.11,9.66,57,10,48.83,10S32.55,9.65,24.41,8.92A159.16,159.16,0,0,1,0,5Z"/><path class="cls-1" d="M96.23,325.44a159,159,0,0,1,24.41-3.92c8.14-.73,16.28-1.07,24.42-1.08s16.27.34,24.41,1.07a156.72,156.72,0,0,1,24.42,3.93,156.72,156.72,0,0,1-24.42,3.93c-8.14.74-16.27,1.08-24.41,1.07s-16.28-.35-24.42-1.08A157.75,157.75,0,0,1,96.23,325.44Z"/><path class="cls-1" d="M120.1,324.61,22.15,7.93,71.54,2.3q49.67,160.11,99.34,320.21Z"/><path class="cls-1" d="M192.88,5.23a159.16,159.16,0,0,1-24.41,3.92c-8.14.73-16.28,1.07-24.42,1.08s-16.28-.34-24.41-1.07A156.72,156.72,0,0,1,95.22,5.23,156.72,156.72,0,0,1,119.64,1.3Q131.83.2,144.05.23c8.14,0,16.28.35,24.42,1.08A159.16,159.16,0,0,1,192.88,5.23Z"/><path class="cls-1" d="M103.65,325.67a157.75,157.75,0,0,1-24.41,3.92q-12.21,1.1-24.42,1.08c-8.14,0-16.27-.33-24.41-1.07A156.72,156.72,0,0,1,6,325.67a156.72,156.72,0,0,1,24.42-3.93c8.14-.73,16.27-1.07,24.41-1.07s16.28.35,24.42,1.08A159,159,0,0,1,103.65,325.67Z"/><path class="cls-1" d="M58.6,325.23Q104.67,166,150.72,6.83l-12-.39L46.41,324.07Z"/></svg>