<svg id="Layer_1" data-name="Layer 1" xmlns="http://www.w3.org/2000/svg" preserveAspectRatio = "none" viewBox="0 0 184.83 326.85"><defs><style>.cls-1{fill:#fff;}</style></defs><path class="cls-1" d="M0,5A157.88,157.88,0,0,1,24.42,1.08C32.55.35,40.69,0,48.83,0S65.11.33,73.24,1.07A156.72,156.72,0,0,1,97.66,5,156.72,156.72,0,0,1,73.24,8.93Q61,10,48.83,10c-8.14,0-16.28-.35-24.41-1.08A159.09,159.09,0,0,1,0,5Z"/><path class="cls-1" d="M0,321.85a159.09,159.09,0,0,1,24.42-3.92c8.13-.73,16.27-1.07,24.41-1.08s16.28.34,24.41,1.07a156.72,156.72,0,0,1,24.42,3.93,156.72,156.72,0,0,1-24.42,3.93q-12.19,1.1-24.41,1.07c-8.14,0-16.28-.35-24.41-1.08A159.09,159.09,0,0,1,0,321.85Z"/><rect class="cls-1" x="26.43" y="2" width="44.81" height="322.85"/><path class="cls-1" d="M87.17,5a157.88,157.88,0,0,1,24.42-3.92C119.72.35,127.86,0,136,0s16.28.33,24.42,1.07A156.78,156.78,0,0,1,184.83,5a156.78,156.78,0,0,1-24.41,3.93Q148.21,10,136,10c-8.14,0-16.28-.35-24.41-1.08A159.09,159.09,0,0,1,87.17,5Z"/><path class="cls-1" d="M87.17,321.85a159.09,159.09,0,0,1,24.42-3.92c8.13-.73,16.27-1.07,24.41-1.08s16.28.34,24.42,1.07a156.78,156.78,0,0,1,24.41,3.93,156.78,156.78,0,0,1-24.41,3.93q-12.21,1.1-24.42,1.07c-8.14,0-16.28-.35-24.41-1.08A159.09,159.09,0,0,1,87.17,321.85Z"/><rect class="cls-1" x="113.6" y="2" width="44.81" height="322.85"/></svg>