<svg id="Layer_1" data-name="Layer 1" xmlns="http://www.w3.org/2000/svg" preserveAspectRatio = "none" viewBox="0 0 360.15 326.85"><defs><style>.cls-1{fill:#fff;}</style></defs><path class="cls-1" d="M0,5A158,158,0,0,1,24.41,1.08C32.55.35,40.69,0,48.83,0S65.11.33,73.24,1.07A156.72,156.72,0,0,1,97.66,5,156.72,156.72,0,0,1,73.24,8.93Q61,10,48.83,10c-8.14,0-16.28-.35-24.42-1.08A159.16,159.16,0,0,1,0,5Z"/><path class="cls-1" d="M0,321.85a159.16,159.16,0,0,1,24.41-3.92c8.14-.73,16.28-1.07,24.42-1.08s16.28.34,24.41,1.07a156.72,156.72,0,0,1,24.42,3.93,156.72,156.72,0,0,1-24.42,3.93q-12.19,1.1-24.41,1.07c-8.14,0-16.28-.35-24.42-1.08A159.16,159.16,0,0,1,0,321.85Z"/><rect class="cls-1" x="26.43" y="2" width="44.81" height="322.85"/><path class="cls-1" d="M92.53,5A157.88,157.88,0,0,1,117,1.08C125.09.35,133.23,0,141.36,0s16.28.33,24.42,1.07A156.4,156.4,0,0,1,190.19,5a156.4,156.4,0,0,1-24.41,3.93Q153.57,10,141.36,10c-8.13,0-16.27-.35-24.41-1.08A159.09,159.09,0,0,1,92.53,5Z"/><path class="cls-1" d="M262.49,5A157.75,157.75,0,0,1,286.9,1.08C295,.35,303.18,0,311.32,0s16.27.33,24.41,1.07A156.72,156.72,0,0,1,360.15,5a156.72,156.72,0,0,1-24.42,3.93Q323.52,10,311.32,10c-8.14,0-16.28-.35-24.42-1.08A159,159,0,0,1,262.49,5Z"/><path class="cls-1" d="M198.06,325.44,113.22,5,162.8,1.41l63.94,254.36S209.63,306.06,198.06,325.44Z"/><path class="cls-1" d="M198.06,325.44,315.43,5h11.49q-58.6,160.22-117.19,320.44Z"/></svg>