<svg id="Layer_1" data-name="Layer 1" xmlns="http://www.w3.org/2000/svg" preserveAspectRatio = "none" viewBox="0 0 267.61 325.44"><defs><style>.cls-1{fill:#fff;}</style></defs><path class="cls-1" d="M0,5A158,158,0,0,1,24.41,1.08C32.55.35,40.69,0,48.83,0S65.11.33,73.24,1.07A156.72,156.72,0,0,1,97.66,5,156.72,156.72,0,0,1,73.24,8.93Q61,10,48.83,10c-8.14,0-16.28-.35-24.42-1.08A159.16,159.16,0,0,1,0,5Z"/><path class="cls-1" d="M170,5a157.88,157.88,0,0,1,24.42-3.92C202.51.35,210.64,0,218.78,0s16.28.33,24.42,1.07A156.59,156.59,0,0,1,267.61,5,156.59,156.59,0,0,1,243.2,8.93Q231,10,218.78,10c-8.14,0-16.27-.35-24.41-1.08A159.09,159.09,0,0,1,170,5Z"/><path class="cls-1" d="M105.52,325.44,20.68,5,70.26,1.41l64,254.36S117.09,306.06,105.52,325.44Z"/><path class="cls-1" d="M105.52,325.44,222.89,5h11.49Q175.79,165.22,117.19,325.44Z"/></svg>