<svg id="Layer_1" data-name="Layer 1" xmlns="http://www.w3.org/2000/svg" preserveAspectRatio = "none" viewBox="0 0 443.64 326.85"><defs><style>.cls-1{fill:#fff;}</style></defs><path class="cls-1" d="M259.81,5a158,158,0,0,1,24.41-3.92C292.36.35,300.5,0,308.64,0s16.27.33,24.41,1.07A156.72,156.72,0,0,1,357.47,5a156.72,156.72,0,0,1-24.42,3.93Q320.84,10,308.64,10c-8.14,0-16.28-.35-24.42-1.08A159.16,159.16,0,0,1,259.81,5Z"/><path class="cls-1" d="M259.81,321.85a159.16,159.16,0,0,1,24.41-3.92c8.14-.73,16.28-1.07,24.42-1.08s16.27.34,24.41,1.07a156.72,156.72,0,0,1,24.42,3.93,156.72,156.72,0,0,1-24.42,3.93q-12.21,1.1-24.41,1.07c-8.14,0-16.28-.35-24.42-1.08A159.16,159.16,0,0,1,259.81,321.85Z"/><rect class="cls-1" x="286.23" y="2" width="44.81" height="322.85"/><path class="cls-1" d="M346,5a158,158,0,0,1,24.41-3.92C378.53.35,386.67,0,394.81,0s16.28.33,24.41,1.07A156.72,156.72,0,0,1,443.64,5a156.72,156.72,0,0,1-24.42,3.93Q407,10,394.81,10c-8.14,0-16.28-.35-24.42-1.08A159.16,159.16,0,0,1,346,5Z"/><path class="cls-1" d="M346,321.85a159.16,159.16,0,0,1,24.41-3.92c8.14-.73,16.28-1.07,24.42-1.08s16.28.34,24.41,1.07a156.72,156.72,0,0,1,24.42,3.93,156.72,156.72,0,0,1-24.42,3.93q-12.2,1.1-24.41,1.07c-8.14,0-16.28-.35-24.42-1.08A159.16,159.16,0,0,1,346,321.85Z"/><rect class="cls-1" x="372.4" y="2" width="44.81" height="322.85"/><path class="cls-1" d="M0,5A158,158,0,0,1,24.41,1.08C32.55.35,40.69,0,48.83,0S65.11.33,73.24,1.07A156.72,156.72,0,0,1,97.66,5,156.72,156.72,0,0,1,73.24,8.93Q61,10,48.83,10c-8.14,0-16.28-.35-24.42-1.08A159.16,159.16,0,0,1,0,5Z"/><path class="cls-1" d="M170,5a157.88,157.88,0,0,1,24.42-3.92C202.51.35,210.64,0,218.78,0s16.28.33,24.42,1.07A156.59,156.59,0,0,1,267.61,5,156.59,156.59,0,0,1,243.2,8.93Q231,10,218.78,10c-8.14,0-16.27-.35-24.41-1.08A159.09,159.09,0,0,1,170,5Z"/><path class="cls-1" d="M105.52,325.44,20.68,5,70.26,1.41l64,254.36S117.09,306.06,105.52,325.44Z"/><path class="cls-1" d="M105.52,325.44,222.89,5h11.49Q175.79,165.22,117.19,325.44Z"/></svg>