<svg id="Layer_1" data-name="Layer 1" xmlns="http://www.w3.org/2000/svg" preserveAspectRatio = "none" viewBox="0 0 283.68 331.55"><defs><style>.cls-1{fill:#fff;}</style></defs><path class="cls-1" d="M0,5.07A158,158,0,0,1,24.42,1.12C32.55.38,40.69,0,48.83,0S65.11.37,73.24,1.11a155.63,155.63,0,0,1,24.42,4A155.63,155.63,0,0,1,73.24,9C65.11,9.77,57,10.11,48.83,10.1S32.55,9.75,24.42,9A158,158,0,0,1,0,5.07Z"/><path class="cls-1" d="M0,326.51a156.75,156.75,0,0,1,24.42-3.94q12.19-1.11,24.41-1.09c8.14,0,16.28.33,24.41,1.07a156.81,156.81,0,0,1,24.42,4,154.47,154.47,0,0,1-24.42,4c-8.13.74-16.27,1.08-24.41,1.08s-16.28-.35-24.41-1.09A156.78,156.78,0,0,1,0,326.51Z"/><rect class="cls-1" x="26.43" y="2.03" width="44.81" height="327.53"/><path class="cls-1" d="M89.79,5a157.88,157.88,0,0,1,24.42-3.92C122.35.35,130.49,0,138.62,0S154.9.33,163,1.07A156.59,156.59,0,0,1,187.45,5,156.59,156.59,0,0,1,163,8.93Q150.83,10,138.62,10c-8.13,0-16.27-.35-24.41-1.08A159.09,159.09,0,0,1,89.79,5Z"/><path class="cls-1" d="M186,325.44a159.09,159.09,0,0,1,24.42-3.92c8.13-.73,16.27-1.07,24.41-1.08s16.28.34,24.42,1.07a156.78,156.78,0,0,1,24.41,3.93,156.78,156.78,0,0,1-24.41,3.93q-12.21,1.1-24.42,1.07c-8.14,0-16.28-.35-24.41-1.08A157.88,157.88,0,0,1,186,325.44Z"/><path class="cls-1" d="M209.89,324.61,111.94,7.93,161.33,2.3Q211,162.41,260.67,322.51Z"/><path class="cls-1" d="M282.67,5.23a158.77,158.77,0,0,1-24.41,3.92c-8.14.73-16.28,1.07-24.42,1.08s-16.27-.34-24.41-1.07A156.72,156.72,0,0,1,185,5.23,156.72,156.72,0,0,1,209.43,1.3Q221.64.2,233.84.23c8.14,0,16.28.35,24.42,1.08A158.77,158.77,0,0,1,282.67,5.23Z"/><path class="cls-1" d="M193.45,325.67A157.88,157.88,0,0,1,169,329.59q-12.21,1.1-24.41,1.08c-8.14,0-16.28-.33-24.42-1.07a156.59,156.59,0,0,1-24.41-3.93,156.59,156.59,0,0,1,24.41-3.93c8.14-.73,16.28-1.07,24.42-1.07s16.27.35,24.41,1.08A159.09,159.09,0,0,1,193.45,325.67Z"/><path class="cls-1" d="M148.39,325.23Q194.46,166,240.51,6.83l-12-.39q-46.17,158.82-92.33,317.63Z"/></svg>