<svg id="Layer_1" data-name="Layer 1" xmlns="http://www.w3.org/2000/svg" viewBox="0 0 246.31 175.8"><defs><style>.cls-1{fill:#034442;}.cls-2{fill:#fff;}</style></defs><rect class="cls-1" x="4.4" y="4.78" width="239.13" height="166.99"/><path class="cls-2" d="M3.39,175.44c.6,0,.92,0,0,0Z"/><path class="cls-2" d="M102.39.38h.26a4.23,4.23,0,0,1,.54-.25Z"/><path class="cls-2" d="M145.25,1l.27,0C145.49,1,145.55.91,145.25,1Z"/><path class="cls-2" d="M.93,2.65A12.11,12.11,0,0,0,1,3.94C1,3.56.94,3.17.93,2.65Z"/><path class="cls-2" d="M84.46,174.9h-.19l.46.06Z"/><path class="cls-2" d="M83.59,175.07c-.94-.07.26-.14.68-.16a17.41,17.41,0,0,0-3.15-.08A24.21,24.21,0,0,0,83.59,175.07Z"/><path class="cls-2" d="M227,174.48l-.43.06Z"/><path class="cls-2" d="M9,8.89l-.07,0S9,8.92,9,8.89Z"/><path class="cls-2" d="M204.45,174.32l-.24.25C204.43,174.46,204.47,174.39,204.45,174.32Z"/><path class="cls-2" d="M103.19.13l.31-.1A1.6,1.6,0,0,0,103.19.13Z"/><path class="cls-2" d="M184.86,1.16c0,.08.1.14.21.19h.11Z"/><path class="cls-2" d="M243.26,145.73s.06,0,.09-.11l-.17-.79A5.23,5.23,0,0,0,243.26,145.73Z"/><path class="cls-2" d="M239.42,2.22c.07,0,.28-.05.29-.08l-1.31-.05-1.46,0h-4.09l-.19.3Z"/><path class="cls-2" d="M239.08,59.84l.6-5.79c.28,18.59-.32,27.26.16,43.17l-.13-.88c-.14,2.31,1.22,3.62-.44,29.2h-.06a13.85,13.85,0,0,1,0,2.66l.37-4.42c.15,2.64.44,5,.48,8.49-.06.75-.19,1-.28,1.08l.1,8.67-.39,2.65c.21,2.65,1,1.44.57,8.53.58-2.67.35,3.51.64,2.64-.07.35-.18,1.17-.28,1.82.07,4.21.23,12.14.52,14.11,0,0,1.21-16.49,1.82-20.92-.15,5.93.07,1.57.26.4l-.14-.4c.14-3.55.5-3.55.6-5.33,0,0-.06.06-.1.1l.05.23c-.06.17-.11.07-.14-.12-.08,0-.14-.12-.12-1.09l0,.19c-.05-1.49,0-4.05,0-5.17l.3,0c-.58-2.63.88-17.7.89-21.24.39-3.55-.09-8,.1-12.39.1-7.07.44-3.54.7-7.08.19-4.44-.35.89-.37-.89l.42-5.31c0,3.09.22,1.42.33.85.06-4.59.61-11.83,0-13.24.29-6.19.53-6.21.56-8.86a17.57,17.57,0,0,1-.34,2.67c.27-2.48-.06-1.19-.12-.17-.26-3.79,1.1-19.64.44-20.44h.12c-.5-.87-1,.54-1.25-2.11l.22-1.76L245,47c.16-1.78.29-.91.35-.91-.22-4.32,0-10.36.11-15.6l-1.34,5.55c.31-4.42.94-12.39.51-13.27l.45-2.66c.86-8.86-.37-6.18-.11-9.72l.06-.56,0-.28,0-.37.12-1.51.25-3.19v5.89c.16-3.39.26-5.68.37-7.9l-6.05-.36h-.07a2.75,2.75,0,0,1,.66.07h-1a8.49,8.49,0,0,1-1,.17c-.34,0-.78.1-1.29.13-1,.07-2.39.11-3.95.1-4.44-.07-7.9.29-15-.23l-1.76.51-5.31-.3V2.2c5.2,0,15-.13,21.68-.15l.12-.18c-4,0-8.48.17-11.1.13-1.28-.08-4.54-.49-2.17-.76l-2.45.39c-13.24,0-13.33.06-27.15-.39l1.2.2c-2.74.12-5.47.23-6.23-.09-8.3-.07-16.89-.32-22.28-.82L161.61,1c-1.75,0-4.38-.74-5.23-.08l-3.75.21a63.46,63.46,0,0,1-6.59,0h0L145.52,1s0,0,0,0c-5.42-.21,0,.42-6.16.15-2-.33-2.2.6-5.22.49l-3-.67c-5.48-.39-6.42.29-14.36.29C113,1.09,111.12.51,113.64,0a28.55,28.55,0,0,1-6.18.7c-.71-.25-.22-.31.8-.54-4.09-.3-2.52.23-5.61.22a7.53,7.53,0,0,1-2.93,1.27l1.19.15a74.17,74.17,0,0,1-10.62.14l.14-.24-4,.12-.26-.31-5.77.1.79.08c-1.35,0-5.8.15-8.34,0l.09-.18c-7.18-.53-13.09.17-21.5.23l1.11-.35c-2.86-.35-.79.54-4.2.36l-.17-.43c-3,.57-3.88-.12-6-.33l1,.56-3.9-.12c-4.29-.18-2.64-.71-2-1L34.33.86l-.57-.5c-2.14.58-2.14-.09-5.88.22-.31-.19.64-.3-.63-.38L21.07.9,24.8.59l-.46.73c-3.87.55-5.25-.08-8,.12l1.91-.21a40.81,40.81,0,0,1-7.31-.3c.79.14,2,.34.17.44a2,2,0,0,1-1-.13,1.68,1.68,0,0,0-.31-.12l-.26-.05-.18,0H9a7.43,7.43,0,0,1-2.62.45c-1.4.11-3.19.16-5.15.14,0,1,0,2-.08,2.93A1.35,1.35,0,0,1,1,3.94a26.51,26.51,0,0,1,.09,4.2c-.18-.47-.36-1-.54-1.48L.79,9l.06.55a1.81,1.81,0,0,0,.07.34l.12.63c-.14,1.68.25,4.12-.12,3.9l-.1-.95L.69,26.11l-.43.18C.85,27.54,0,33.2.77,32.78c-.4,2.4.29,9.43-.55,8-.06,8.34.74,12.84.33,23-.7,3.61-.48,13.5-.55,20,.3,12.72.56,20.94.79,33.93-1,7.82.34,19.5-.22,27.91l.39,2.3a93.93,93.93,0,0,0-.24,10.15c0,1.9,0,3.88,0,5.87,0,1,0,2-.08,3,0,1.7-.09,3.54-.17,5.35.07,1.39.13,2.5.16,3.24l2.74-.08c-.61,0-1.51-.1-1.57-.35,1.82.09,4.74.08,7.08.11h.62l.46,0,.75.06c.42.05.64.13.56.26l-.57,0c-.33.5,6.8-.23,9.3.2l-1.37-.54,4.24.09-1.14.11c18.43-1.19,26.76.5,44.07-.58-2.3.59,3.41-.3,3.64.33,4.36.8,8.08-.17,11.66-.38,0,0,0-.07.25-.12l6.26.08c-3.74.8,4.5-.67,1.07,0,16.31.61,37.6,0,56.48.27l-.83-.21c4.79,0,10.75-.21,14.38.12s8-.52,9.36-.55c4-.36,7.6.35,5.89.31,4.26-.1,8.27-.83,14.17-.52,2,.68,16.13-.67,16.3.1l.07-.06c7.57.54,14.71-.38,22.86.11l-.43.11,16.58-2.33-4.72-2.57-14.38-2.08-39,.45-31.09-.81-75.69.27-5.4.58c-14.88-1-33.95.15-50-.57l-.33.5a20.85,20.85,0,0,1-5.33-.37l-6.61,0-2,0H8.57c-.11-17.49-.22-35.08-.33-52.22-.07-18.51-.05-36.52.23-53.44.33-3.64.14-14.73.49-17.59-.31-6.14-.46-12.46-.53-18.79,0-3.16,0-6.32,0-9.46,0-1.57,0-3.14,0-4.69V9.12l.05.1,0-.41L9,8.75A.12.12,0,0,1,9,8.89a.75.75,0,0,1,.18-.07,2.14,2.14,0,0,1,.25,0h.33l.69,0,2.89-.06c2,0,4.16,0,6.35,0l13,.32-.47,0c46.66.09,90-.84,136.27-.14,10.76.4,22.39.33,34.43.23l18.29-.09,9.25.05,4.64.07,2.31,0,1.16,0c.27,0,.19,0,.22,0l0,0c0,.06.05.11,0,.15l0,.06h0v.24c0,.28,0,.56,0,.85,0,2.28,0,4.84,0,7.57,0,5.47,0,11.59.05,17.43C238.85,47.35,239,57.92,239.08,59.84Z"/><path class="cls-2" d="M239.75,133.35v-.19C239.53,133.17,239.61,133.46,239.75,133.35Z"/><path class="cls-2" d="M245.48,30.19v.32l.3-1.22Z"/><path class="cls-2" d="M245.65,96.27c.07-3,0-3.11-.07-2.69C245.57,94.65,245.59,95.59,245.65,96.27Z"/><path class="cls-2" d="M240.15,157.61c0,1.56.1,1,.24,0,0-1.59,0-2.7,0-2.7C240.29,155.83,240.22,156.72,240.15,157.61Z"/><path class="cls-2" d="M243,151.25l.17.48C243.12,150.81,243.06,150.85,243,151.25Z"/></svg>