<?xml version="1.0" encoding="utf-8"?>
<!-- Generator: Adobe Illustrator 25.2.1, SVG Export Plug-In . SVG Version: 6.00 Build 0)  -->
<svg version="1.1" id="Layer_1" xmlns="http://www.w3.org/2000/svg" xmlns:xlink="http://www.w3.org/1999/xlink" x="0px" y="0px"
	 viewBox="0 0 279.7 103.9" style="enable-background:new 0 0 279.7 103.9;" xml:space="preserve">
<style type="text/css">
	.st0{fill:#EDE3D3;}
	.st1{fill:none;stroke:#003960;stroke-width:11.33;stroke-linecap:round;stroke-miterlimit:10;}
	.st2{fill:none;stroke:#685A4D;stroke-width:0.45;stroke-miterlimit:10;}
</style>
<path class="st0" d="M265.3,95.1H13.5c-10.4-30-10.4-62.6,0-92.6h251.8C255.7,32.6,255.7,65,265.3,95.1z"/>
<path class="st1" d="M274,5.7H13.2c-10.1,30-10.1,62.5,0,92.6H274"/>
<line class="st2" x1="14.8" y1="24.3" x2="83.9" y2="24.3"/>
<line class="st2" x1="26.4" y1="39" x2="109.4" y2="39"/>
<line class="st2" x1="258.1" y1="48.8" x2="182.9" y2="48.8"/>
<line class="st2" x1="258.5" y1="28.4" x2="152.5" y2="28.4"/>
<line class="st2" x1="258.5" y1="64.8" x2="233.6" y2="64.8"/>
<line class="st2" x1="258.5" y1="39" x2="246.1" y2="39"/>
<line class="st2" x1="34.1" y1="52" x2="9.2" y2="52"/>
<line class="st2" x1="263.2" y1="83.8" x2="157.6" y2="83.8"/>
<line class="st2" x1="86.8" y1="73.2" x2="11.9" y2="73.2"/>
<g>
	<path d="M960.7,538.9c0.3,0.2,0.9,0.4,1.4,0.4c0.8,0,1.1-0.4,1.1-0.9c0-0.5-0.3-0.8-1.1-1.1c-1-0.4-1.5-1-1.5-1.7
		c0-0.9,0.8-1.7,2-1.7c0.6,0,1.1,0.2,1.4,0.3l-0.3,0.8c-0.2-0.1-0.6-0.3-1.2-0.3c-0.6,0-1,0.4-1,0.8c0,0.5,0.3,0.7,1.1,1
		c1,0.4,1.5,0.9,1.5,1.7c0,1-0.8,1.8-2.2,1.8c-0.6,0-1.2-0.2-1.6-0.4L960.7,538.9z"/>
	<path d="M965.6,536c0-0.7,0-1.3,0-1.8h0.9l0,1.1h0c0.3-0.8,0.9-1.3,1.6-1.3c0.1,0,0.2,0,0.3,0v1c-0.1,0-0.2,0-0.3,0
		c-0.8,0-1.3,0.6-1.4,1.4c0,0.1,0,0.3,0,0.5v3.1h-1V536z"/>
	<path d="M970.8,532.5v1.7h1.5v0.8h-1.5v3.1c0,0.7,0.2,1.1,0.8,1.1c0.3,0,0.5,0,0.6-0.1l0,0.8c-0.2,0.1-0.5,0.2-0.9,0.2
		c-0.5,0-0.9-0.2-1.1-0.4c-0.3-0.3-0.4-0.8-0.4-1.5V535h-0.9v-0.8h0.9v-1.4L970.8,532.5z"/>
	<path d="M975.1,532.8h-2.5v-0.9h6v0.9h-2.5v7.2h-1.1V532.8z"/>
	<path d="M980.7,532.6c0,0.4-0.3,0.6-0.7,0.6c-0.4,0-0.6-0.3-0.6-0.6c0-0.4,0.3-0.7,0.6-0.7S980.7,532.2,980.7,532.6z M979.5,540
		v-5.8h1v5.8H979.5z"/>
	<path d="M983.6,532.5v1.7h1.5v0.8h-1.5v3.1c0,0.7,0.2,1.1,0.8,1.1c0.3,0,0.5,0,0.6-0.1l0,0.8c-0.2,0.1-0.5,0.2-0.9,0.2
		c-0.5,0-0.9-0.2-1.1-0.4c-0.3-0.3-0.4-0.8-0.4-1.5V535h-0.9v-0.8h0.9v-1.4L983.6,532.5z"/>
	<path d="M986.3,531.5h1v8.5h-1V531.5z"/>
	<path d="M989.7,537.3c0,1.4,0.9,2,2,2c0.8,0,1.2-0.1,1.6-0.3l0.2,0.8c-0.4,0.2-1,0.4-1.9,0.4c-1.8,0-2.9-1.2-2.9-2.9
		c0-1.8,1-3.1,2.7-3.1c1.9,0,2.4,1.7,2.4,2.7c0,0.2,0,0.4,0,0.5H989.7z M992.8,536.5c0-0.7-0.3-1.7-1.5-1.7c-1.1,0-1.5,1-1.6,1.7
		H992.8z"/>
</g>
<g>
	<path d="M960.7,538.9c0.3,0.2,0.9,0.4,1.4,0.4c0.8,0,1.1-0.4,1.1-0.9c0-0.5-0.3-0.8-1.1-1.1c-1-0.4-1.5-1-1.5-1.7
		c0-0.9,0.8-1.7,2-1.7c0.6,0,1.1,0.2,1.4,0.3l-0.3,0.8c-0.2-0.1-0.6-0.3-1.2-0.3c-0.6,0-1,0.4-1,0.8c0,0.5,0.3,0.7,1.1,1
		c1,0.4,1.5,0.9,1.5,1.7c0,1-0.8,1.8-2.2,1.8c-0.6,0-1.2-0.2-1.6-0.4L960.7,538.9z"/>
	<path d="M965.6,536c0-0.7,0-1.3,0-1.8h0.9l0,1.1h0c0.3-0.8,0.9-1.3,1.6-1.3c0.1,0,0.2,0,0.3,0v1c-0.1,0-0.2,0-0.3,0
		c-0.8,0-1.3,0.6-1.4,1.4c0,0.1,0,0.3,0,0.5v3.1h-1V536z"/>
	<path d="M970.8,532.5v1.7h1.5v0.8h-1.5v3.1c0,0.7,0.2,1.1,0.8,1.1c0.3,0,0.5,0,0.6-0.1l0,0.8c-0.2,0.1-0.5,0.2-0.9,0.2
		c-0.5,0-0.9-0.2-1.1-0.4c-0.3-0.3-0.4-0.8-0.4-1.5V535h-0.9v-0.8h0.9v-1.4L970.8,532.5z"/>
	<path d="M975.1,532.8h-2.5v-0.9h6v0.9h-2.5v7.2h-1.1V532.8z"/>
	<path d="M980.7,532.6c0,0.4-0.3,0.6-0.7,0.6c-0.4,0-0.6-0.3-0.6-0.6c0-0.4,0.3-0.7,0.6-0.7S980.7,532.2,980.7,532.6z M979.5,540
		v-5.8h1v5.8H979.5z"/>
	<path d="M983.6,532.5v1.7h1.5v0.8h-1.5v3.1c0,0.7,0.2,1.1,0.8,1.1c0.3,0,0.5,0,0.6-0.1l0,0.8c-0.2,0.1-0.5,0.2-0.9,0.2
		c-0.5,0-0.9-0.2-1.1-0.4c-0.3-0.3-0.4-0.8-0.4-1.5V535h-0.9v-0.8h0.9v-1.4L983.6,532.5z"/>
	<path d="M986.3,531.5h1v8.5h-1V531.5z"/>
	<path d="M989.7,537.3c0,1.4,0.9,2,2,2c0.8,0,1.2-0.1,1.6-0.3l0.2,0.8c-0.4,0.2-1,0.4-1.9,0.4c-1.8,0-2.9-1.2-2.9-2.9
		c0-1.8,1-3.1,2.7-3.1c1.9,0,2.4,1.7,2.4,2.7c0,0.2,0,0.4,0,0.5H989.7z M992.8,536.5c0-0.7-0.3-1.7-1.5-1.7c-1.1,0-1.5,1-1.6,1.7
		H992.8z"/>
</g>
<g>
	<path d="M87.5,69.6V41.5c0-1.9-0.4-3.2-1.3-4c-0.8-0.8-2-1.2-3.6-1.2h-14v-7.8h16.8c2.4,0,4.5,0.5,6.4,1.4c1.9,0.9,3.3,2.4,4.4,4.3
		c1.1,2,1.6,4.6,1.6,7.8v27.6H87.5z"/>
	<path d="M106.1,69.6V36.9l-0.9-8.4h10.4l0.9,8.4v32.7H106.1z"/>
	<path d="M127.7,69.6V44.7c0-1.9,0.2-3.5,0.5-5s0.9-2.6,1.5-3.5h-6.5v-7.8h21.4v7.8h-5.4c-0.6,1.2-0.9,2.6-1,4.1
		c-0.1,1.6-0.1,3-0.1,4.3v24.9H127.7z"/>
	<path d="M176.1,69.6V41.9c0-3.7-1.6-5.6-4.8-5.6h-20v-7.8h22.8c2.4,0,4.6,0.5,6.5,1.4c1.9,1,3.3,2.5,4.4,4.5c1.1,2,1.6,4.7,1.6,8
		v27.2H176.1z M151.3,69.6V33.2h10.4v36.4H151.3z"/>
</g>
</svg>
