<?xml version="1.0" encoding="utf-8"?>
<!-- Generator: Adobe Illustrator 25.2.1, SVG Export Plug-In . SVG Version: 6.00 Build 0)  -->
<svg version="1.1" id="Layer_1" xmlns="http://www.w3.org/2000/svg" xmlns:xlink="http://www.w3.org/1999/xlink" x="0px" y="0px"
	 viewBox="0 0 297.2 108.2" style="enable-background:new 0 0 297.2 108.2;" xml:space="preserve">
<style type="text/css">
	.st0{fill:#EDE3D3;}
	.st1{fill:none;stroke:#003960;stroke-width:11.33;stroke-linecap:round;stroke-miterlimit:10;}
	.st2{fill:none;stroke:#685A4D;stroke-width:0.45;stroke-miterlimit:10;}
</style>
<g>
	<defs>
		<rect id="SVGID_1_" x="-1348.2" y="-38.2" width="1138.6" height="555.9"/>
	</defs>
	<clipPath id="SVGID_2_">
		<use xlink:href="#SVGID_1_"  style="overflow:visible;"/>
	</clipPath>
</g>
<path class="st0" d="M22,95.1h251.8c10.4-30,10.4-62.6,0-92.6H22c4.4,13.8,6.8,28.1,7.1,42.5C29.5,62,27.1,78.9,22,95.1z"/>
<path class="st1" d="M13.2,5.7H274c10.1,30,10.1,62.5,0,92.6H13.2"/>
<line class="st2" x1="272.4" y1="24.3" x2="203.4" y2="24.3"/>
<line class="st2" x1="260.8" y1="39" x2="177.9" y2="39"/>
<line class="st2" x1="29.1" y1="48.8" x2="104.3" y2="48.8"/>
<line class="st2" x1="28.7" y1="28.4" x2="134.7" y2="28.4"/>
<line class="st2" x1="28.7" y1="64.8" x2="53.6" y2="64.8"/>
<line class="st2" x1="28.7" y1="39" x2="41.2" y2="39"/>
<line class="st2" x1="253.1" y1="52" x2="278" y2="52"/>
<line class="st2" x1="24" y1="83.8" x2="129.6" y2="83.8"/>
<line class="st2" x1="200.5" y1="73.2" x2="275.3" y2="73.2"/>
<g>
	<path d="M71.3,69.4V49.7l1.4-4.8h9v4.8v19.7H71.3z M95.4,69.4V41.3c0-1.9-0.4-3.2-1.3-4c-0.8-0.8-2-1.2-3.6-1.2H71.7v-7.8h21.6
		c2.4,0,4.5,0.5,6.4,1.4c1.9,0.9,3.3,2.4,4.4,4.3c1.1,2,1.6,4.6,1.6,7.8v27.6H95.4z"/>
	<path d="M112.2,83.8V49.3l1.4-5h9v4.9v34.6H112.2z M127.5,69.5l-0.8-7.8c1.5-0.1,2.9-0.5,4.1-1c1.2-0.5,2.2-1.2,3.1-2.2
		c0.9-1,1.5-2.3,2-3.9c0.5-1.6,0.8-3.6,0.9-6l0.9-12.5h-25.1v-7.8H149l-0.4,6.7l-0.8,10.9c-0.1,3.3-0.6,6.3-1.4,9.1
		c-0.8,2.8-2,5.3-3.5,7.5s-3.6,3.9-6.1,5.1C134.3,68.8,131.2,69.4,127.5,69.5z"/>
	<path d="M156,54.3v-6.3V36.7l-0.9-8.4h10.4l0.9,8.4v11.2l-0.1,4.5L156,54.3z"/>
	<path d="M189.2,69.4V44.5c0-1.9,0.2-3.5,0.5-5c0.4-1.4,0.9-2.6,1.5-3.5h-18.4v-7.8h33.8v7.8h-5.6c-0.5,1.2-0.9,2.6-1.1,4.1
		c-0.2,1.6-0.3,3-0.3,4.3v24.9H189.2z"/>
	<path d="M231,69.4V41.3c0-1.9-0.4-3.2-1.3-4c-0.8-0.8-2.1-1.2-3.6-1.2H212v-7.8h17c2.4,0,4.5,0.5,6.4,1.4c1.9,0.9,3.3,2.4,4.4,4.3
		c1.1,2,1.6,4.6,1.6,7.8v27.6H231z M212,69.4v-7.8h34.2v7.8H212z"/>
</g>
</svg>
