<svg id="Layer_1" data-name="Layer 1" xmlns="http://www.w3.org/2000/svg" viewBox="0 0 58.83 58.42"><defs><style>.cls-1{fill:#fff;}</style></defs><path class="cls-1" d="M18.27,1.31s0,0,0,0Z"/><path class="cls-1" d="M37.05.78s0,0,0,0a.8.8,0,0,1,0-.18Z"/><path class="cls-1" d="M40.07,1.23l0,0S40.09,1.17,40.07,1.23Z"/><path class="cls-1" d="M30.09,1.46s0,0-.05,0A.09.09,0,0,1,30.09,1.46Z"/><path class="cls-1" d="M12.73,1.7h0l0,0Z"/><path class="cls-1" d="M12.79,1.57c.07.06,0,.11,0,.12s.15.11.22.06S12.82,1.66,12.79,1.57Z"/><path class="cls-1" d="M2.68,2l0,0Z"/><path class="cls-1" d="M30.39,6.92l-.05,0A.05.05,0,0,0,30.39,6.92Z"/><path class="cls-1" d="M4.27,2.12l0-.18A.62.62,0,0,0,4.27,2.12Z"/><path class="cls-1" d="M37.11.6l0-.07A.14.14,0,0,0,37.11.6Z"/><path class="cls-1" d="M42.86,1.35a.44.44,0,0,0,0,.13h0Z"/><path class="cls-1" d="M56.94,4.16s0,0,0-.07l-.06.12A.18.18,0,0,0,56.94,4.16Z"/><path class="cls-1" d="M46.69,2.11a.11.11,0,0,0,0-.06A.78.78,0,0,0,46.25,2l0,.21Z"/><path class="cls-1" d="M50.88,7.17l-.41-.44c1.31-.2,1.92.24,3.05-.11l-.07.09c.17.1.26-.88,2.06.32v0c.07,0,.07-.09.19,0l-.31-.27c.19-.11.35-.32.6-.35a.31.31,0,0,1,.07.21l.61-.07.19.28c.19-.16.1-.75.6-.42-.19-.41.25-.25.19-.46a1.32,1.32,0,0,0,.13.2c.29,0,.85-.16,1-.37A10.18,10.18,0,0,1,57.3,4.54c.42.11.11,0,0-.19l0,.1c-.25-.1-.25-.36-.38-.43s0,0,0,.07v0a.14.14,0,0,1,0,.11s0,.1-.08.08v0a.72.72,0,0,1-.36,0V4c-.19.41-1.25-.64-1.5-.65-.25-.27-.56.07-.87-.07-.5-.07-.25-.32-.5-.5s.06.25-.07.26l-.37-.3c.22,0,.1-.16.06-.24-.32,0-.83-.44-.93,0-.44-.21-.44-.38-.63-.41.06.08.19.16.19.24-.17-.19-.08,0,0,.09-.27.19-1.39-.79-1.44-.31V2c-.06.36,0,.7-.15.9l-.13-.16L50,2.89a.22.22,0,0,1-.07-.25c-.3.16-.73,0-1.1-.08l.4,1c-.32-.23-.88-.68-.94-.37l-.19-.33c-.62-.62-.43.27-.68.09l-.32-.36h.32A3.08,3.08,0,0,1,46.71,2h0l0,.06h-.05a.38.38,0,0,1-.42.29c-.31,0-.55.21-1.05-.16l-.13.36-.37-.22V2.09c.37,0,1.06-.09,1.53-.1V1.86c-.28,0-.6.12-.79.1s-.32-.36-.15-.56l-.17.29a3.74,3.74,0,0,1-1.92-.28l.09.14c-.19.09-.39.17-.44-.07A2.58,2.58,0,0,1,41.31.89l-.08.34c-.13,0-.31-.53-.37-.06l-.27.15c-.17,0-.27.17-.46,0h0s0,0,0,0v0c-.38-.15,0,.31-.43.11-.14-.24-.16.43-.37.36l-.21-.49c-.39-.28-.46.21-1,.21a.78.78,0,0,1-.22-1c-.24.45-.11.29-.43.51a.44.44,0,0,1,.05-.39c-.28-.22-.17.16-.39.15a3.36,3.36,0,0,1-.21.92l.09.11a.59.59,0,0,1-.75.1V1.73l-.29.09,0-.22-.4.07,0,.06a.83.83,0,0,1-.58,0V1.59c-.5-.38-.92.12-1.51.17l.07-.26c-.2-.25-.05.39-.29.27V1.46c-.22.4-.28-.09-.42-.25l.07.41-.28-.08c-.3-.14-.19-.52-.14-.73l-.21.32,0-.36c-.15.42-.15-.07-.41.16,0-.14,0-.22-.05-.27l-.43.5.26-.22,0,.52c-.27.4-.37-.05-.57.09l.14-.15c-.32.12-.34-.1-.52-.22.06.1.14.25,0,.31s-.05-.18-.14-.24c0,.35-.25.54-.45.37a.25.25,0,0,1,0-.13c-.06.06-.08.15-.18.07l.06-.39-.18.37c-.12-.11-.29.17-.27-.09l.06-.08-.89-.09V1c-.09.43-.49-.16-.46.37-.17-.29-.67.2-.57-.4-.58,0-.9.54-1.62.24C25.73.67,25,.84,24.57.78c-.89.22-1.47.41-2.39.57-.55-.71-1.37.25-2-.15l-.17.28c-.39-.45-1,.1-1.55-.34a.81.81,0,0,1-.23.17s.06.07.07.25c-.16-.13-.48,0-.45-.33l0,0c0-.36-.48.16-.66-.15l.1.39-.3-.07.08-.07c-1.3.85-1.89-.37-3.11.41.16-.42-.24.22-.25-.24-.31-.57-.57.13-.83.28a.34.34,0,0,1,0,.09l-.44-.06c.26-.58-.32.48-.08,0-1.15-.43-2.65,0-4-.19l.06.15c-.34,0-.76.15-1-.09S6.93,2,6.83,2c-.28.26-.53-.25-.41-.23-.3.08-.58.61-1,.38-.14-.49-1.14.48-1.15-.07v0c-.54-.39-1,.28-1.62-.08a.26.26,0,0,1,0-.07L1.51,3.69l.34,1.85,1,1.5,2.75-.33L7.8,7.3l5.34-.2.38-.42c1.05.73,2.39-.11,3.52.41l0-.36c.32,0,.3.21.38.27,3-.08,6-.56,8.67-.11.26.24,1,.1,1.24.35A5.14,5.14,0,0,1,30,6.85l0,0,.41-.07a.12.12,0,0,1,0,.1c.46-.32,1.18,0,1.74.13l0,0c3.29.06,6.35-.61,9.61-.11,1.51.59,3.28-.22,5,.27C47.05,7.61,50.57,7.34,50.88,7.17Z"/><path class="cls-1" d="M56.06,6.69h0C56.05,6.84,56.07,6.78,56.06,6.69Z"/><path class="cls-1" d="M48.79,2.55h0l-.08-.22Z"/><path class="cls-1" d="M53.45,2.43c-.21-.05-.22,0-.19,0A.21.21,0,0,0,53.45,2.43Z"/><path class="cls-1" d="M57.77,6.4c.11,0,.07-.08,0-.18l-.19,0C57.65,6.28,57.71,6.36,57.77,6.4Z"/><path class="cls-1" d="M57.32,4.35l0-.13C57.29,4.25,57.3,4.3,57.32,4.35Z"/><path class="cls-1" d="M17.53,52.31s0,0,0,0Z"/><path class="cls-1" d="M36.31,51.78h0c0-.07,0-.13,0-.18Z"/><path class="cls-1" d="M39.34,52.23v0S39.36,52.16,39.34,52.23Z"/><path class="cls-1" d="M29.35,52.45a.07.07,0,0,0-.05,0Z"/><path class="cls-1" d="M12,52.69h0l0,0Z"/><path class="cls-1" d="M12.05,52.57c.07,0,0,.1,0,.12a.15.15,0,0,0,.22.06C12.23,52.64,12.09,52.65,12.05,52.57Z"/><path class="cls-1" d="M2,53l0,0Z"/><path class="cls-1" d="M29.65,57.92l0,0A0,0,0,0,0,29.65,57.92Z"/><path class="cls-1" d="M3.53,53.11l0-.17A1.49,1.49,0,0,0,3.53,53.11Z"/><path class="cls-1" d="M36.37,51.6l0-.07A.64.64,0,0,0,36.37,51.6Z"/><path class="cls-1" d="M42.13,52.35a.53.53,0,0,0,0,.13h0Z"/><path class="cls-1" d="M56.2,55.15a.13.13,0,0,0,0-.06l0,.12A.09.09,0,0,0,56.2,55.15Z"/><path class="cls-1" d="M46,53.11s0,0,0-.06a.85.85,0,0,0-.46-.07v.22Z"/><path class="cls-1" d="M50.14,58.17l-.4-.44c1.31-.2,1.92.24,3-.11l-.06.09c.16.1.25-.88,2.06.32v0c.06,0,.06-.09.18,0l-.31-.26c.19-.11.35-.32.6-.35a.39.39,0,0,1,.08.21l.61-.08.18.28c.19-.15.11-.74.61-.41-.19-.41.24-.25.18-.46l.13.2c.3,0,.86-.16,1-.38a10.11,10.11,0,0,1-1.48-1.31c.42.12.11-.05,0-.19l0,.11c-.25-.1-.25-.36-.38-.44s0,.05,0,.08l0,0a.15.15,0,0,1,0,.1c0,.06,0,.1-.08.09l0,0a.75.75,0,0,1-.37,0V55c-.19.42-1.25-.63-1.5-.64-.25-.28-.56.06-.87-.07-.5-.07-.25-.32-.5-.51s.06.26-.06.27l-.38-.3c.22,0,.1-.16.06-.24-.32,0-.83-.44-.93,0-.44-.2-.44-.38-.62-.4.06.08.18.15.18.24-.17-.19-.08,0,0,.09-.27.19-1.38-.79-1.44-.31V53c-.06.35,0,.7-.15.89l-.12-.15-.19.15a.24.24,0,0,1-.06-.26c-.31.17-.73,0-1.1-.07l.39,1c-.31-.22-.87-.67-.94-.36l-.18-.33c-.63-.62-.44.27-.69.08l-.31-.35h.31A3.32,3.32,0,0,1,46,53h0a.05.05,0,0,1,0,.05h0a.38.38,0,0,1-.42.29c-.32,0-.56.21-1.06-.17l-.12.37L44,53.38v-.29c.37,0,1.06-.09,1.53-.11v-.13c-.28,0-.6.13-.78.1s-.32-.36-.16-.55l-.17.28a3.61,3.61,0,0,1-1.91-.28l.08.15c-.19.08-.38.16-.44-.07a2.67,2.67,0,0,1-1.57-.59l-.08.34c-.12,0-.31-.54-.37-.06l-.26.15c-.17,0-.28.17-.47,0h0l0,0v0c-.39-.15,0,.3-.44.11-.14-.24-.15.43-.37.35l-.21-.48c-.39-.28-.45.2-1,.21a.76.76,0,0,1-.22-1c-.25.44-.11.29-.44.5-.05-.18,0-.22.06-.39-.29-.21-.18.17-.4.16a3.48,3.48,0,0,1-.2.92l.08.11a.59.59,0,0,1-.75.09v-.17l-.28.09,0-.22-.41.07.06.06a.92.92,0,0,1-.59,0v-.13c-.51-.38-.93.12-1.52.16l.08-.25c-.2-.25-.06.39-.3.26v-.31c-.21.41-.27-.08-.42-.24l.07.41-.28-.09c-.3-.13-.18-.51-.14-.72l-.2.32,0-.36c-.15.42-.15-.07-.42.15,0-.13.05-.21,0-.27l-.44.51.26-.22,0,.52c-.27.4-.37-.06-.56.09l.13-.16c-.32.13-.33-.09-.51-.21.05.1.14.24,0,.31s-.05-.18-.14-.24c0,.35-.25.53-.46.37a.44.44,0,0,1,0-.13c-.05.06-.08.15-.17.06l.05-.39-.17.37c-.12-.1-.29.18-.28-.08l.07-.08-.9-.09V52c-.09.42-.49-.17-.46.37-.17-.29-.66.2-.56-.4-.59,0-.91.53-1.62.24-.26-.51-.95-.35-1.41-.4-.9.21-1.48.41-2.39.57-.55-.71-1.38.24-2-.16l-.16.29c-.4-.46-1,.1-1.55-.34a.94.94,0,0,1-.24.17s.06.07.07.25c-.15-.13-.47,0-.45-.33l0,0c0-.36-.48.17-.66-.14l.1.38-.3-.06.08-.07c-1.3.85-1.88-.37-3.1.41.16-.42-.24.22-.26-.24-.31-.58-.57.12-.82.28a.31.31,0,0,1,0,.08l-.44,0c.26-.58-.32.48-.08,0-1.15-.44-2.65,0-4-.2l.06.15c-.34,0-.76.16-1-.08S6.2,53,6.1,53c-.28.26-.54-.25-.42-.23-.3.07-.58.6-1,.38-.14-.5-1.13.48-1.15-.08v0c-.53-.39-1,.27-1.61-.08A.44.44,0,0,1,2,53L.78,54.68l.33,1.85,1,1.5,2.74-.32,2.19.59,5.34-.2.38-.42c1.05.73,2.39-.11,3.52.41l0-.36c.31,0,.29.2.37.27,3-.08,6-.56,8.68-.11.25.24,1,.1,1.24.35a5,5,0,0,1,2.65-.39l0,0,.41-.07a.12.12,0,0,1,0,.1c.46-.32,1.18,0,1.75.13l0,0c3.29.07,6.34-.6,9.6-.1,1.52.59,3.28-.22,5,.27C46.31,58.6,49.83,58.33,50.14,58.17Z"/><path class="cls-1" d="M55.33,57.69h0C55.31,57.84,55.33,57.78,55.33,57.69Z"/><path class="cls-1" d="M48.05,53.55h0L48,53.34Z"/><path class="cls-1" d="M52.71,53.43c-.21,0-.22,0-.19,0A.23.23,0,0,0,52.71,53.43Z"/><path class="cls-1" d="M57,57.4c.11,0,.07-.08,0-.18l-.19,0C56.91,57.28,57,57.36,57,57.4Z"/><path class="cls-1" d="M56.59,55.34l0-.12A.07.07,0,0,0,56.59,55.34Z"/><path class="cls-1" d="M.8,41.61s0,0,0,0Z"/><path class="cls-1" d="M.27,22.83a0,0,0,0,0,0,0l-.18,0Z"/><path class="cls-1" d="M.72,19.8h0S.66,19.78.72,19.8Z"/><path class="cls-1" d="M1,29.79s0,0,0,.05S1,29.81,1,29.79Z"/><path class="cls-1" d="M1.19,47.15v0l0,0Z"/><path class="cls-1" d="M1.06,47.09c.06-.07.11,0,.12,0s.11-.14.06-.22S1.15,47.05,1.06,47.09Z"/><path class="cls-1" d="M1.5,57.19l-.05,0Z"/><path class="cls-1" d="M6.41,29.49l0,.05A0,0,0,0,0,6.41,29.49Z"/><path class="cls-1" d="M1.61,55.61l-.18,0Z"/><path class="cls-1" d="M.09,22.77l-.07,0Z"/><path class="cls-1" d="M.84,17H1Z"/><path class="cls-1" d="M3.65,2.94H3.58L3.7,3A.1.1,0,0,0,3.65,2.94Z"/><path class="cls-1" d="M1.6,13.18H1.54a.78.78,0,0,0-.06.46h.21Z"/><path class="cls-1" d="M6.66,9l-.44.41c-.2-1.31.24-1.92-.11-3l.09.06c.1-.16-.88-.25.32-2.06h0c0-.06-.09-.06,0-.18l-.27.31C6.21,4.3,6,4.14,6,3.89a.39.39,0,0,1,.21-.08L6.11,3.2,6.39,3c-.16-.18-.75-.1-.42-.6-.41.19-.25-.24-.46-.18l.2-.13c0-.3-.16-.86-.37-1A10.11,10.11,0,0,1,4,2.58c.11-.42-.05-.11-.19,0l.1,0c-.1.25-.36.25-.43.37h.07l0,0a.19.19,0,0,1,.11,0c.05,0,.1,0,.08.08l0,0a.75.75,0,0,1,0,.37H3.47c.41.18-.64,1.25-.65,1.5-.28.25.07.56-.07.87-.07.5-.32.25-.51.5s.26-.06.27.06l-.3.38c0-.22-.16-.1-.24-.06,0,.32-.44.83,0,.93-.21.44-.38.44-.41.62.08-.06.15-.18.24-.18-.19.17.05.08.09,0,.19.26-.79,1.38-.31,1.44H1.49c.36.06.7,0,.9.15l-.16.12.15.19a.22.22,0,0,1-.25.06c.16.31,0,.73-.08,1.1l1-.39c-.23.31-.68.87-.37.94l-.33.18c-.62.63.27.44.09.69l-.36.31v-.31a3.32,3.32,0,0,1-.53.69h0a.07.07,0,0,1,.06,0v0a.38.38,0,0,1,.29.42c0,.32.21.56-.16,1.06l.36.12-.22.38H1.58c0-.37-.09-1.06-.1-1.53H1.35c0,.28.12.6.1.78s-.36.32-.56.16l.29.17a3.62,3.62,0,0,1-.29,1.91L1,16.56c.08.19.17.38-.07.44a2.6,2.6,0,0,1-.59,1.57l.34.08c0,.12-.53.31-.06.37l.15.26c0,.17.17.28,0,.47h0l0,0h0c-.15.39.31,0,.11.44-.24.14.43.15.36.37l-.49.21c-.28.39.21.45.21,1A.76.76,0,0,1,0,22c.45.25.29.11.51.44a.44.44,0,0,1-.39-.06c-.22.29.16.18.15.4a3.48,3.48,0,0,1,.92.2l.11-.08a.59.59,0,0,1,.1.75H1.22l.09.28-.22,0,.07.41.06-.06a.85.85,0,0,1,0,.59H1.08c-.38.51.12.93.16,1.52L1,26.34c-.25.2.39.06.27.3H1c.4.21-.09.27-.25.42L1.11,27,1,27.28c-.14.3-.52.18-.73.14l.32.2-.36,0c.42.15-.07.15.16.42-.14,0-.22,0-.27,0l.5.44L.43,28.3l.52,0c.4.27-.06.37.09.56l-.15-.13c.12.32-.1.33-.22.51.1-.05.25-.14.31,0s-.18,0-.24.14c.35,0,.54.25.37.46l-.13,0c.06.05.15.08.06.17L.66,30l.37.17c-.11.12.17.29-.09.28l-.08-.07-.09.9H.46c.43.09-.16.49.37.46-.29.17.2.66-.4.56,0,.59.54.91.24,1.62-.51.26-.34,1-.4,1.41.22.9.41,1.48.57,2.39-.71.55.25,1.38-.15,2l.28.16c-.45.4.1,1-.34,1.55a.94.94,0,0,1,.17.24s.07-.06.25-.07c-.13.15,0,.47-.33.45l0,0c-.36,0,.16.48-.15.66l.39-.1-.07.3-.07-.08c.85,1.3-.37,1.88.41,3.1-.42-.16.22.24-.24.26-.57.31.13.57.28.82l.09,0-.06.44c-.58-.26.48.32,0,.08-.44,1.15,0,2.65-.19,4l.15-.06c0,.34.15.76-.09,1s.38.56.4.66c.26.28-.25.54-.23.42.08.3.61.58.38,1-.49.14.48,1.13-.07,1.15h0c-.39.53.28,1-.08,1.61l-.07,0,1.68,1.17L5,58l1.51-1L6.2,54.27l.59-2.19-.2-5.34-.42-.38c.73-1-.11-2.39.41-3.52l-.36,0c0-.31.21-.29.27-.37-.08-3-.56-6-.11-8.68.24-.25.1-1,.35-1.24a5.11,5.11,0,0,1-.39-2.65l0,0-.07-.41a.12.12,0,0,1,.1,0c-.32-.46,0-1.18.13-1.75l0,0c.06-3.29-.61-6.34-.11-9.6.59-1.52-.22-3.28.27-5C7.1,12.83,6.83,9.31,6.66,9Z"/><path class="cls-1" d="M6.18,3.81v0C6.33,3.83,6.27,3.81,6.18,3.81Z"/><path class="cls-1" d="M2,11.08v0l-.22.09Z"/><path class="cls-1" d="M1.92,6.43c0,.21,0,.22.05.19A.2.2,0,0,0,1.92,6.43Z"/><path class="cls-1" d="M5.89,2.1c0-.11-.08-.07-.18,0s0,.19,0,.19S5.85,2.17,5.89,2.1Z"/><path class="cls-1" d="M3.84,2.55l-.13,0C3.74,2.58,3.79,2.58,3.84,2.55Z"/><path class="cls-1" d="M52.72,40.51s0,0,0,0Z"/><path class="cls-1" d="M52.19,21.72v0l-.18,0Z"/><path class="cls-1" d="M52.64,18.7l0,0S52.57,18.68,52.64,18.7Z"/><path class="cls-1" d="M52.86,28.68s0,0,0,.05A.1.1,0,0,1,52.86,28.68Z"/><path class="cls-1" d="M53.1,46h0l-.05,0Z"/><path class="cls-1" d="M53,46c.05-.06.1,0,.12.05a.15.15,0,0,0,.06-.22C53.05,45.81,53.06,46,53,46Z"/><path class="cls-1" d="M53.41,56.09l0,0Z"/><path class="cls-1" d="M58.33,28.39s0,0,0,0S58.35,28.4,58.33,28.39Z"/><path class="cls-1" d="M53.52,54.5l-.17,0A.59.59,0,0,0,53.52,54.5Z"/><path class="cls-1" d="M52,21.66l-.07,0Z"/><path class="cls-1" d="M52.76,15.91l.13,0h0Z"/><path class="cls-1" d="M55.57,1.84H55.5l.12.06A.1.1,0,0,0,55.57,1.84Z"/><path class="cls-1" d="M53.52,12.08l-.06,0a.78.78,0,0,0-.06.46l.21,0Z"/><path class="cls-1" d="M58.58,7.89l-.44.41c-.2-1.31.24-1.92-.11-3l.09.06c.1-.17-.88-.26.32-2.06h0c0-.06-.09-.06,0-.19l-.26.31c-.11-.18-.32-.35-.35-.6a.31.31,0,0,1,.21-.07L58,2.1l.28-.19c-.15-.19-.74-.1-.41-.6-.41.19-.25-.25-.46-.19a1.32,1.32,0,0,0,.2-.13c-.05-.29-.16-.85-.38-1a10.18,10.18,0,0,1-1.31,1.47c.12-.41,0-.11-.19,0l.11,0c-.1.25-.36.25-.44.38h0a.13.13,0,0,1,.11,0s.09,0,.08.07h0a.72.72,0,0,1,0,.36h-.22c.42.19-.63,1.25-.64,1.5-.28.25.06.56-.07.88-.07.49-.32.24-.51.49s.26-.06.27.07l-.3.37c0-.22-.16-.1-.24-.06,0,.33-.44.84,0,.94-.2.43-.38.43-.4.62.08-.06.15-.19.24-.19-.19.18.05.09.09,0,.19.27-.79,1.39-.31,1.44h-.09c.35.07.7,0,.89.15l-.15.13.15.18a.23.23,0,0,1-.26.07c.17.3,0,.73-.07,1.1l1-.39c-.22.31-.67.87-.36.93l-.33.19c-.62.62.27.44.08.68l-.35.32v-.31a3.26,3.26,0,0,1-.53.68h0l0,0v.05a.38.38,0,0,1,.29.42c-.05.31.21.56-.17,1.05l.37.13-.22.37H53.5c0-.36-.09-1.05-.1-1.53h-.14c0,.28.13.59.1.78s-.35.32-.55.15l.28.17a3.55,3.55,0,0,1-.28,1.92l.15-.09c.08.2.17.39-.07.44a2.64,2.64,0,0,1-.59,1.57l.34.09c0,.12-.54.31-.06.37l.15.26c0,.17.17.27,0,.46h0a.08.08,0,0,1,0,0h0c-.15.38.3,0,.11.43-.24.14.43.16.35.37l-.48.21c-.28.39.2.46.21,1a.76.76,0,0,1-1,.22c.44.24.29.11.5.43a.43.43,0,0,1-.38-.05c-.22.29.16.18.15.39a3.79,3.79,0,0,1,.92.21l.11-.09a.61.61,0,0,1,.1.75h-.18l.09.29-.22,0,.07.4.06-.05a.85.85,0,0,1,0,.59H53c-.38.51.12.92.16,1.52l-.25-.08c-.25.2.39.05.26.29l-.31,0c.41.21-.08.27-.24.41L53,25.9l-.09.27c-.13.3-.51.19-.72.14l.32.21-.36,0c.42.15-.07.15.16.41-.14,0-.22,0-.28.05l.51.43-.22-.26.52,0c.4.28-.06.37.09.57l-.16-.14c.13.32-.09.34-.21.52.1-.06.24-.14.31,0s-.18.05-.24.14c.35,0,.53.25.37.45a.25.25,0,0,1-.13,0c.06.06.15.08.06.18l-.39-.06.37.18c-.1.12.18.29-.08.27l-.08-.06-.09.89h-.31c.42.09-.17.49.37.46-.29.17.2.67-.4.57-.05.58.53.9.24,1.62-.51.25-.35,1-.4,1.41.21.89.41,1.47.57,2.39-.71.55.25,1.37-.16,2l.29.16c-.45.39.1,1-.34,1.55a.68.68,0,0,1,.17.24s.07-.07.25-.08c-.13.16,0,.48-.33.46l0,0c-.36,0,.17.47-.14.65l.38-.1-.06.3-.07-.08c.85,1.3-.37,1.89.41,3.11-.42-.16.22.24-.24.26-.58.3.13.57.28.82a.13.13,0,0,1,.08,0l-.05.44c-.58-.27.48.31,0,.07-.44,1.15,0,2.65-.2,4l.15-.06c0,.34.16.76-.08,1s.38.56.4.66c.26.28-.25.53-.23.41.07.3.6.59.38,1-.5.15.48,1.14-.08,1.15h0c-.39.53.27,1-.08,1.61l-.08,0,1.68,1.17,1.85-.34,1.5-1-.32-2.75L58.71,51l-.2-5.33-.42-.39c.73-1-.11-2.39.41-3.52l-.36,0c0-.32.2-.3.27-.38-.08-3-.56-6-.11-8.67.24-.26.1-1,.35-1.24a5,5,0,0,1-.39-2.65l0,0-.07-.41a.12.12,0,0,1,.1,0c-.32-.46,0-1.19.13-1.75l0,0c.07-3.29-.6-6.34-.1-9.61.59-1.51-.22-3.28.27-5C59,11.72,58.75,8.2,58.58,7.89Z"/><path class="cls-1" d="M58.1,2.71h0C58.25,2.72,58.19,2.7,58.1,2.71Z"/><path class="cls-1" d="M54,10v0l-.22.08Z"/><path class="cls-1" d="M53.84,5.32c-.05.21,0,.22,0,.19A.25.25,0,0,0,53.84,5.32Z"/><path class="cls-1" d="M57.81,1c0-.11-.08-.07-.18,0l0,.19C57.69,1.12,57.77,1.06,57.81,1Z"/><path class="cls-1" d="M55.75,1.45l-.12,0A.08.08,0,0,0,55.75,1.45Z"/></svg>