<svg id="Layer_1" data-name="Layer 1" xmlns="http://www.w3.org/2000/svg" xmlns:xlink="http://www.w3.org/1999/xlink" viewBox="0 0 1242 2208"><defs><style>.cls-1,.cls-17,.cls-18{fill:none;}.cls-2{fill:#d6d880;}.cls-3{fill:#9bddac;}.cls-4{fill:#c4eabb;}.cls-5{fill:#bab75b;}.cls-5,.cls-7,.cls-8{opacity:0.7;}.cls-6{fill:#826b54;}.cls-7{fill:#76a581;}.cls-8{fill:#a3bf99;}.cls-9{clip-path:url(#clip-path);}.cls-10{clip-path:url(#clip-path-2);}.cls-11{fill:#067267;opacity:0.2;}.cls-12{clip-path:url(#clip-path-3);}.cls-13{fill:#f2eada;}.cls-13,.cls-17,.cls-18{stroke:#000f2d;stroke-miterlimit:10;}.cls-13,.cls-18{stroke-width:20.9px;}.cls-14{opacity:0.8;}.cls-15{clip-path:url(#clip-path-4);}.cls-16{fill:#bcb19b;}.cls-17{stroke-linecap:round;stroke-width:3.48px;}</style><clipPath id="clip-path"><rect class="cls-1" x="-1552.17" y="330.87" width="1242" height="2208"/></clipPath><clipPath id="clip-path-2"><rect class="cls-1" x="-1754.23" y="935.21" width="1641.4" height="801.34"/></clipPath><clipPath id="clip-path-3"><rect class="cls-1" x="1156.87" width="87.24" height="216.63"/></clipPath><clipPath id="clip-path-4"><path class="cls-1" d="M1306-96.67S1195.23-58.56,1162.39,27.72c-6.76,17.76-33.57,88.19,5.93,148.35,49.8,75.84,156.46,61.49,162.15,60.63,78.31-11.79,135.13-102.51,135.13-102.51C1454,140.9,1410.72,164,1356.22,152.8c-13.49-2.77-58.84-12.07-86.65-53.69-28.21-42.23-18.82-88.47-15.33-105.67C1264.18-55.54,1294.18-85.86,1306-96.67Z"/></clipPath></defs><rect class="cls-2" y="1963.89" width="1242" height="244.11"/><rect class="cls-3" y="1577.23" width="1242" height="398.89"/><rect class="cls-4" width="1242" height="1568.34"/><path class="cls-5" d="M1.06,2152.38c190.34-1.59,391.35-7.5,601.88-19.15,225.62-12.48,439.31-30.29,640-51.56l.12,126.33H1.06Z"/><rect class="cls-6" y="1553.15" width="1242" height="37.41"/><path class="cls-7" d="M0,1751a2039.86,2039.86,0,0,0,348.67,78.81c240.39,32.46,438.55,15.59,622.11-1.06,113.67-10.32,207.12-23.8,271.22-34.18l2.11,165.6L1.89,1963.89Z"/><rect class="cls-6" y="1932.78" width="1242" height="65.78"/><path class="cls-8" d="M0,162.94q218.39-18.56,437.55-32.44,401-25.41,804.45-35.16V0H0Z"/><g class="cls-9"><g class="cls-10"><path class="cls-11" d="M-1400.65,814c-26.81,28.78-96,103-100.61,207-7.35,164.15,151.23,289.22,232.84,353.57,221.74,174.88,471.31,208.44,592.17,215.6,133.74,7.92,596.85,35.36,809-281.78,22.91-34.25,161.47-249.78,82.13-439.75C38.22,445.66-1083.37,473.31-1400.65,814Z"/></g></g><g class="cls-12"><circle class="cls-13" cx="1338.52" cy="54.67" r="151.59"/><g class="cls-14"><g class="cls-15"><ellipse class="cls-16" cx="1337.75" cy="55.29" rx="141.31" ry="140.32" transform="translate(205.89 770.5) rotate(-34.66)"/></g></g><line class="cls-17" x1="1239.26" y1="15.75" x2="1218" y2="3.48"/><line class="cls-17" x1="1236.14" y1="93.58" x2="1214.88" y2="105.86"/><line class="cls-17" x1="1207.04" y1="54.67" x2="1231.59" y2="54.67"/><circle class="cls-18" cx="1337.69" cy="55.24" r="151.59"/></g></svg>