<?xml version="1.0" encoding="utf-8"?>
<!-- Generator: Adobe Illustrator 25.2.1, SVG Export Plug-In . SVG Version: 6.00 Build 0)  -->
<svg preserveAspectRatio = "none" version="1.1" id="Layer_1" xmlns="http://www.w3.org/2000/svg" xmlns:xlink="http://www.w3.org/1999/xlink" x="0px" y="0px"
	 viewBox="0 0 2059.5 1441.4" style="enable-background:new 0 0 2059.5 1441.4;" xml:space="preserve">
<style type="text/css">
	.st0{clip-path:url(#SVGID_2_);}
	.st1{fill:url(#SVGID_3_);}
	.st2{fill:url(#SVGID_4_);}
	.st3{fill:url(#SVGID_5_);}
	.st4{fill:#034442;}
	.st5{clip-path:url(#SVGID_7_);}
	.st6{opacity:0.2;fill:#067267;enable-background:new    ;}
	.st7{opacity:0.2;fill:#076D68;enable-background:new    ;}
	.st8{fill:#FFFFFF;}
</style>
<g id="Layer_2_1_">
	<g id="Layer_1-2">
		<g>
			<defs>
				<rect id="SVGID_1_" y="-11.6" width="2059.5" height="1453"/>
			</defs>
			<clipPath id="SVGID_2_">
				<use xlink:href="#SVGID_1_"  style="overflow:visible;"/>
			</clipPath>
			<g class="st0">
				
					<linearGradient id="SVGID_3_" gradientUnits="userSpaceOnUse" x1="-389.8605" y1="849.3737" x2="2441.5403" y2="849.3737" gradientTransform="matrix(1 0 0 -1 0 1442)">
					<stop  offset="0" style="stop-color:#B7713D"/>
					<stop  offset="1" style="stop-color:#C17E40"/>
				</linearGradient>
				<rect x="-389.9" y="0.2" class="st1" width="2831.4" height="1184.9"/>
				
					<linearGradient id="SVGID_4_" gradientUnits="userSpaceOnUse" x1="1029.745" y1="-28.6853" x2="1029.745" y2="141.6546" gradientTransform="matrix(1 0 0 -1 0 1442)">
					<stop  offset="0" style="stop-color:#56381D"/>
					<stop  offset="1" style="stop-color:#774C28"/>
				</linearGradient>
				<rect x="-384.4" y="1354.5" class="st2" width="2828.4" height="86.9"/>
				
					<linearGradient id="SVGID_5_" gradientUnits="userSpaceOnUse" x1="1025.84" y1="262.3683" x2="1025.84" y2="66.8287" gradientTransform="matrix(1 0 0 -1 0 1442)">
					<stop  offset="0" style="stop-color:#AF6B38"/>
					<stop  offset="1" style="stop-color:#A36634"/>
				</linearGradient>
				<rect x="-444.7" y="1185.6" class="st3" width="2941" height="173.8"/>
				<rect x="-335" y="46.6" class="st4" width="2721.8" height="1139"/>
				<g>
					<defs>
						<rect id="SVGID_6_" x="-335" y="46.6" width="2721.8" height="1126.2"/>
					</defs>
					<clipPath id="SVGID_7_">
						<use xlink:href="#SVGID_6_"  style="overflow:visible;"/>
					</clipPath>
					<g class="st5">
						<path class="st6" d="M251.3-123.7C206.8-83.2,92.1,21.1,84.4,167.2C72.2,397.9,335.2,573.7,470.5,664.1
							c367.7,245.8,781.5,292.9,981.9,303c221.8,11.1,989.7,49.7,1341.5-396c38-48.1,267.8-351.1,136.2-618
							C2637.2-641.4,777.4-602.5,251.3-123.7z"/>
						<path class="st7" d="M685.8-346.8c-25.5,26.4-91.4,94.5-95.9,189.7c-7,150.5,144.1,265.2,221.9,324.2
							C1023.1,327.6,1261,358.4,1376.1,365c127.4,7.3,568.8,32.4,770.9-258.4c21.8-31.4,153.9-229.1,78.3-403.3
							C2057-684.5,988.2-659.2,685.8-346.8z"/>
					</g>
				</g>
			</g>
		</g>
		<path class="st8" d="M686.6,511.9C686.6,511.6,686.6,511.4,686.6,511.9z"/>
		<path class="st8" d="M687.8,805.4v0.3c0.2,0.2,0.3,0.4,0.4,0.6L687.8,805.4z"/>
		<path class="st8" d="M686.8,852.6c0,0.1,0,0.2,0,0.3S686.9,852.9,686.8,852.6z"/>
		<path class="st8" d="M686.3,696.6c0-0.3,0-0.5-0.1-0.8C686.2,696.1,686.3,696.3,686.3,696.6z"/>
		<path class="st8" d="M685.7,425.5c0,0.1,0,0.1,0,0.2l0.1-0.5L685.7,425.5z"/>
		<path class="st8" d="M686,426.4c-0.1,1-0.2-0.3-0.3-0.7c-0.2,1.1-0.2,2.3-0.1,3.5C685.8,429.1,685.8,426.9,686,426.4z"/>
		<path class="st8" d="M685,268.5l0.1,0.5C685.1,268.8,685.1,268.6,685,268.5z"/>
		<path class="st8" d="M673.7,701.3c0-0.2,0-0.5,0-0.7C673.7,700.8,673.7,701,673.7,701.3z"/>
		<path class="st8" d="M684.8,293.3l0.4,0.3C685,293.3,684.8,293.2,684.8,293.3z"/>
		<path class="st8" d="M688.2,806.3l0.2,0.4C688.4,806.5,688.3,806.4,688.2,806.3z"/>
		<path class="st8" d="M686.5,896.2c-0.1,0-0.2,0.1-0.3,0.2v0.1L686.5,896.2z"/>
		<path class="st8" d="M680.1,1116.1c0.1,0,0.1-0.1,0.2-0.1l-0.3-0.9C679.9,1115.4,680,1115.8,680.1,1116.1z"/>
		<path class="st8" d="M684.8,956.1c0,0,0.1,0.2,0.1,0.2c0.1-1,0.2-3.7,0.1-7.2l-0.5-0.2L684.8,956.1z"/>
		<path class="st8" d="M673.1,1021.5l1-6.4c0.5,20.5-0.5,30,0.3,47.5l-0.2-1c-0.2,2.5,2,4-0.7,32.2h-0.1c0.1,1,0.1,2,0,2.9l0.6-4.9
			c0.2,2.9,0.7,5.5,0.8,9.4c-0.1,0.8-0.3,1.1-0.5,1.2l0.2,9.5l-0.6,2.9c0.3,2.9,1.7,1.6,1,9.4c0.9-2.9,0.6,3.9,1,2.9
			c-0.1,0.4-0.3,1.3-0.4,2c0.1,4.6,0.4,13.4,0.9,15.5c0,0,2-18.2,3-23c-0.3,6.5,0.1,1.7,0.4,0.4l-0.2-0.4c0.2-2,0.5-3.9,1-5.9
			c0,0-0.1,0-0.2,0.1v0.3c-0.1,0.2-0.2,0-0.2-0.1c-0.1,0-0.2-0.1-0.2-1.2v0.2c-0.1-1.6,0-4.5,0-5.6h0.5c-0.9-2.9,1.5-19.5,1.5-23.4
			c0.6-3.9-0.1-8.8,0.2-13.6c0.1-7.8,0.7-3.9,1.2-7.8c0.3-4.9-0.6,1-0.6-1l0.7-5.9c0,3.4,0.4,1.6,0.6,0.9c0.1-5.1,1-13,0-14.6
			c0.5-6.8,0.9-6.8,0.9-9.8c-0.1,1-0.3,2-0.5,2.9c0.4-2.7-0.1-1.3-0.2-0.2c-0.4-4.2,1.8-21.6,0.7-22.5h0.2c-0.8-1-1.7,0.6-2.1-2.3
			l0.4-1.9l-0.3-2.9c0.3-2,0.5-1,0.6-1c-0.4-4.8,0-11.4,0.2-17.2l-2.1,6c0.5-4.9,1.6-13.7,0.8-14.6l0.8-2.9
			c1.4-9.8-0.6-6.8-0.2-10.7l0.8-4.9v4.9c0.4-4.9,0.7-6.8,1.2-10.7l0,0c0,0.2,0,0.3-0.1,0.5v-0.7c-0.6-2.1-0.8-4.4-0.6-6.6
			c0.1-4.9-0.5-8.7,0.4-16.5l-0.8-2l0.5-5.8h0.7c0,5.7,0.2,16.5,0.2,23.9l0.3,0.1c0-4.4-0.3-9.3-0.2-12.2c0.1-1.4,0.8-5,1.3-2.4
			l-0.6-2.7c-0.1-14.6-0.1-14.7,0.6-29.9l-0.3,1.3c-0.2-3-0.4-6,0.1-6.9c0.1-9.1,0.5-18.6,1.4-24.5l-0.8-1.3c0-1.9,1.2-4.8,0.1-5.7
			l-0.3-4.1c-0.2-2.4-0.2-4.8,0-7.3l0,0l0.1-0.6l0,0c0.3-6-0.7,0-0.2-6.8c0.5-2.2-1-2.4-0.8-5.8l1.1-3.3c0.6-6-0.5-7-0.5-15.8
			c0.4-4.2,1.4-6.2,2.2-3.4c-0.8-2.2-1.1-4.5-1.2-6.8c0.4-0.8,0.5-0.2,0.9,0.9c0.5-4.5-0.4-2.8-0.4-6.2c-0.8-1-2.1-2.1-2.1-3.2
			l-0.2,1.3c-0.5-3.9-0.6-7.8-0.2-11.7l0.4,0.2l-0.2-4.5l0.5-0.3l-0.2-6.4l-0.1,0.9c0-1.5-0.2-6.4,0-9.2l0.3,0.1
			c0.9-7.9-0.3-14.4-0.4-23.7l0.6,1.2c0.6-3.1-0.9-0.9-0.6-4.6l0.7-0.2c-0.9-3.3,0.2-4.2,0.5-6.6l-0.9,1.1l0.2-4.2
			c0.3-4.7,1.2-2.9,1.7-2.2l-0.7-3.2l0.8-0.6c-1-2.4,0.1-2.4-0.4-6.5c0.3-0.3,0.5,0.7,0.6-0.7l-1.2-6.8l0.5,4.1l-1.2-0.5
			c-0.9-4.2,0.1-5.8-0.2-8.8l0.3,2.1c-0.2-2.7,0-5.4,0.5-8.1c-0.2,0.9-0.6,2.2-0.7,0.2c0-1.4,0.4-0.8,0.6-2.2
			c-0.8-0.3-1.2-3.9-0.8-7.1c0.2,0.1,0.3,0.2,0.3,0.3c-0.2-0.9-0.3-1.8-0.1-2.7l0.9,0.8l-0.8-2.8c0.2-1.8-0.4-4.5,0.2-4.3l0.2,1.1
			l0.2-14l0.7-0.2c-1-1.4,0.4-7.6-0.8-7.2c0.7-2.6-0.5-10.4,0.9-8.8c0.1-9.2-1.2-14.1-0.5-25.3c1.2-4,0.8-14.9,0.9-22
			c-0.5-14.1-0.9-23.1-1.3-37.4c1.7-8.6-0.6-21.5,0.4-30.7l-0.6-2.5c1-6.2-0.2-15.6,0.8-24.2c-0.3-2.1-0.4-3.2-0.4-3.7
			c0,0.4-0.2,1-0.6,1.2c0.3-2.5,0-7.5,0.8-7.1l0.1,0.6c0.8,0.4-0.4-7.5,0.3-10.2l-0.9,1.5l0.1-4.7l0.2,1.3c-2-20.3,0.8-29.5-1-48.5
			c1,2.5-0.5-3.8,0.5-4c1.3-4.8-0.3-8.9-0.6-12.8c0,0-0.1,0-0.2-0.3l0.1-6.9c1.3,4.1-1.1-5,0-1.2c1-18,0-41.4,0.4-62.2l-0.3,0.9
			c0-5.3-0.3-11.8,0.2-15.8c0.5-4-0.9-8.8-0.9-10.3c-0.6-4.4,0.6-8.4,0.5-6.5c-0.2-4.7-1.4-9.1-0.9-15.6c1.1-2.2-1.1-17.8,0.2-18
			h-0.1c0.9-8.3-0.6-16.2,0.2-25.2c0.1,0.2,0.1,0.3,0.2,0.5l-3.9-18.3l-4.3,5.2l-3.4,15.8l0.7,42.9l-1.3,34.3l0.4,83.3l1,6
			c-1.7,16.4,0.2,37.4-0.9,55l0.8,0.4c0.2,2,0,4-0.6,5.9c0.2,46.3,1.3,93.9,0.2,135.5c-0.5,4-0.2,16.2-0.8,19.4
			c1,13.5,1,27.8,0.9,41.4l-0.1-0.5l0.2,6.4c-0.1,0.3-0.2,0.3-0.2,0.1c0.7,7.2,0,18.5-0.3,27.3l-0.1-0.5
			c-0.1,51.4,1.4,99.1,0.2,150.1c-1.3,23.7,0.5,51.3-0.6,78.5C672.1,961.6,672.8,1016.6,673.1,1021.5z"/>
		<path class="st8" d="M674.2,1102.5v-0.2C673.9,1102.3,674,1102.6,674.2,1102.5z"/>
		<path class="st8" d="M683.7,988.8v0.4l0.5-1.4L683.7,988.8z"/>
		<path class="st8" d="M684,1061.6c0.1-3.3,0-3.4-0.1-3C683.9,1059.7,683.9,1060.6,684,1061.6z"/>
		<path class="st8" d="M674.9,1129.2c0,1.7,0.2,1.1,0.4,0c0-1.8,0-3,0-3C675.2,1127.2,675,1128.2,674.9,1129.2z"/>
		<path class="st8" d="M679.6,1122.2l0.3,0.5C679.9,1121.7,679.7,1121.7,679.6,1122.2z"/>
		<path class="st8" d="M1377.1,511.9C1377.1,511.6,1377.1,511.4,1377.1,511.9z"/>
		<path class="st8" d="M1378.3,805.4v0.3c0.2,0.2,0.3,0.4,0.4,0.6L1378.3,805.4z"/>
		<path class="st8" d="M1377.3,852.6c0,0.1,0,0.2,0,0.3S1377.4,852.9,1377.3,852.6z"/>
		<path class="st8" d="M1376.7,696.6c0-0.3,0-0.5,0-0.8C1376.8,696.1,1376.8,696.4,1376.7,696.6z"/>
		<path class="st8" d="M1376.2,425.5c0,0.1,0,0.1,0,0.2c0-0.2,0-0.3,0.1-0.5L1376.2,425.5z"/>
		<path class="st8" d="M1376.5,426.4c-0.1,1-0.2-0.3-0.3-0.7c-0.2,1.1-0.3,2.3-0.1,3.5C1376.3,429.1,1376.3,426.9,1376.5,426.4z"/>
		<path class="st8" d="M1375.5,268.5l0.1,0.5C1375.6,268.8,1375.5,268.7,1375.5,268.5z"/>
		<path class="st8" d="M1364.2,701.3c0-0.2,0-0.5,0-0.7C1364.1,700.8,1364.1,701,1364.2,701.3z"/>
		<path class="st8" d="M1375.2,293.3l0.4,0.3C1375.5,293.3,1375.3,293.2,1375.2,293.3z"/>
		<path class="st8" d="M1378.7,806.3l0.2,0.4C1378.8,806.5,1378.8,806.4,1378.7,806.3z"/>
		<path class="st8" d="M1377,896.2c-0.1,0-0.2,0.1-0.3,0.2v0.1L1377,896.2z"/>
		<path class="st8" d="M1370.5,1116.1c0.1,0,0.1-0.1,0.2-0.1l-0.3-0.9C1370.4,1115.4,1370.5,1115.8,1370.5,1116.1z"/>
		<path class="st8" d="M1375.2,956.1c0,0,0.1,0.2,0.1,0.2c0.1-1,0.2-3.7,0.1-7.2l-0.5-0.2L1375.2,956.1z"/>
		<path class="st8" d="M1363.6,1021.5l1-6.4c0.5,20.5-0.5,30,0.3,47.5l-0.2-1c-0.2,2.5,2,4-0.7,32.2h-0.1c0.2,1,0.2,2,0,2.9l0.6-4.9
			c0.2,2.9,0.7,5.5,0.8,9.4c-0.1,0.8-0.3,1.1-0.5,1.2l0.2,9.5l-0.6,2.9c0.3,2.9,1.7,1.6,1,9.4c0.9-2.9,0.6,3.9,1,2.9
			c-0.1,0.4-0.3,1.3-0.4,2c0.1,4.6,0.4,13.4,0.9,15.5c0,0,2-18.2,3-23c-0.2,6.5,0.1,1.7,0.4,0.4l-0.2-0.4c0.2-2,0.5-3.9,1-5.9
			c0,0-0.1,0-0.2,0.1v0.3c-0.1,0.2-0.2,0-0.2-0.1c-0.1,0-0.2-0.1-0.2-1.2v0.2c-0.1-1.6,0-4.5,0-5.6h0.5c-0.9-2.9,1.5-19.5,1.5-23.4
			c0.6-3.9-0.2-8.8,0.1-13.6c0.2-7.8,0.7-3.9,1.2-7.8c0.3-4.9-0.6,1-0.6-1l0.7-5.9c0,3.4,0.4,1.6,0.6,0.9c0-5.1,1-13,0-14.6
			c0.5-6.8,0.9-6.8,0.9-9.8c-0.1,1-0.3,2-0.5,2.9c0.4-2.7-0.1-1.3-0.2-0.2c-0.4-4.2,1.8-21.6,0.7-22.5h0.2c-0.8-1-1.7,0.6-2.1-2.3
			l0.4-1.9l-0.3-2.9c0.3-2,0.5-1,0.6-1c-0.4-4.8,0-11.4,0.2-17.2l-2.2,6.1c0.5-4.9,1.5-13.7,0.8-14.6l0.7-2.9
			c1.4-9.8-0.6-6.8-0.2-10.7l0.8-4.9v4.9c0.4-4.9,0.7-6.8,1.2-10.7l0,0c0,0.2,0,0.3-0.1,0.5v-0.7c-0.6-2.1-0.8-4.4-0.6-6.6
			c0.1-4.9-0.5-8.7,0.4-16.5l-0.8-2l0.5-5.8h0.7c0,5.7,0.2,16.5,0.2,23.9l0.3,0.1c0-4.4-0.3-9.3-0.2-12.2c0.1-1.4,0.8-5,1.3-2.4
			l-0.6-2.7c-0.1-14.6-0.1-14.7,0.6-29.9l-0.3,1.3c-0.2-3-0.4-6,0.1-6.9c0.1-9.1,0.5-18.6,1.4-24.5l-0.8-1.3c0-1.9,1.2-4.8,0.1-5.7
			l-0.3-4.1c-0.2-2.4-0.2-4.8,0-7.3l0,0l0.1-0.6l0,0c0.3-6-0.7,0-0.2-6.8c0.5-2.2-1-2.4-0.8-5.8l1.1-3.3c0.6-6-0.5-7-0.5-15.8
			c0.4-4.2,1.4-6.2,2.2-3.4c-0.8-2.2-1.2-4.5-1.2-6.8c0.4-0.8,0.5-0.2,0.9,0.9c0.5-4.5-0.4-2.8-0.3-6.2c-0.8-1-2.1-2.1-2.1-3.2
			l-0.2,1.3c-0.5-3.9-0.6-7.8-0.2-11.7l0.4,0.2l-0.2-4.5l0.5-0.3l-0.2-6.4l-0.1,0.9c0-1.5-0.2-6.4,0-9.2l0.3,0.1
			c0.9-7.9-0.3-14.4-0.4-23.7l0.6,1.2c0.6-3.1-0.9-0.9-0.6-4.6l0.7-0.2c-0.9-3.3,0.2-4.2,0.5-6.6l-0.9,1.1l0.2-4.2
			c0.3-4.7,1.2-2.9,1.7-2.2l-0.7-3.2l0.8-0.6c-1-2.4,0.1-2.4-0.4-6.5c0.3-0.3,0.5,0.7,0.6-0.7l-1.2-6.8l0.5,4.1l-1.2-0.5
			c-0.9-4.2,0.1-5.8-0.2-8.8l0.4,2.1c-0.2-2.7,0-5.4,0.5-8.1c-0.2,0.9-0.5,2.2-0.7,0.2c0-1.4,0.4-0.8,0.6-2.2
			c-0.8-0.3-1.2-3.9-0.8-7.1c0.2,0.1,0.3,0.2,0.3,0.3c-0.2-0.9-0.3-1.8-0.1-2.7l0.9,0.8l-0.9-2.8c0.2-1.8-0.4-4.5,0.2-4.3l0.2,1.1
			l0.2-14l0.7-0.2c-1-1.4,0.4-7.6-0.8-7.2c0.7-2.6-0.5-10.4,0.9-8.8c0.1-9.2-1.2-14.1-0.5-25.3c1.2-4,0.8-14.9,0.9-22
			c-0.5-14.1-0.9-23.1-1.3-37.4c1.7-8.6-0.6-21.5,0.4-30.7l-0.6-2.5c1-6.2-0.2-15.6,0.8-24.2c-0.3-2.1-0.4-3.2-0.4-3.7
			c0,0.4-0.1,1-0.6,1.2c0.3-2.5,0-7.5,0.8-7.1v0.6c0.8,0.4-0.4-7.5,0.3-10.2l-0.9,1.5l0.1-4.7l0.2,1.3c-2-20.3,0.8-29.5-0.9-48.5
			c1,2.5-0.5-3.8,0.5-4c1.3-4.8-0.3-8.9-0.6-12.8c0,0-0.1,0-0.2-0.3l0.1-6.9c1.3,4.1-1.1-5,0-1.2c1-18,0-41.4,0.4-62.2l-0.3,0.9
			c0-5.3-0.3-11.8,0.2-15.8c0.5-4-0.9-8.8-0.9-10.3c-0.6-4.4,0.6-8.4,0.5-6.5c-0.2-4.7-1.4-9.1-0.9-15.6c1.1-2.2-1.1-17.8,0.2-18
			h-0.1c0.9-8.3-0.6-16.2,0.2-25.2c0.1,0.2,0.1,0.3,0.2,0.5l-3.9-18.3l-4.2,5.2l-3.4,15.8l0.7,42.9l-1.4,34.3l0.5,83.3l1,6
			c-1.7,16.4,0.2,37.4-0.9,55l0.8,0.4c0.2,2,0,4-0.6,5.9c0.2,46.3,1.3,93.9,0.2,135.5c-0.5,4-0.2,16.2-0.8,19.4
			c1,13.5,1,27.8,0.9,41.4V695l0.1,6.4c0,0.3-0.2,0.3-0.2,0.1c0.7,7.2,0,18.5-0.3,27.3v-0.5c-0.1,51.4,1.4,99.1,0.2,150.1
			c-1.3,23.7,0.5,51.3-0.6,78.5C1362.6,961.6,1363.2,1016.6,1363.6,1021.5z"/>
		<path class="st8" d="M1364.7,1102.5v-0.2C1364.4,1102.3,1364.5,1102.6,1364.7,1102.5z"/>
		<path class="st8" d="M1374.2,988.8v0.4l0.5-1.4L1374.2,988.8z"/>
		<path class="st8" d="M1374.5,1061.6c0.1-3.3,0-3.4-0.1-3C1374.4,1059.7,1374.4,1060.6,1374.5,1061.6z"/>
		<path class="st8" d="M1365.4,1129.2c0,1.7,0.2,1.1,0.4,0c0-1.8,0-3,0-3C1365.6,1127.2,1365.5,1128.2,1365.4,1129.2z"/>
		<path class="st8" d="M1370.1,1122.2l0.3,0.5C1370.3,1121.7,1370.2,1121.7,1370.1,1122.2z"/>
	</g>
</g>
</svg>
