<svg id="Layer_1" data-name="Layer 1" preserveAspectRatio = "none" xmlns="http://www.w3.org/2000/svg" xmlns:xlink="http://www.w3.org/1999/xlink" viewBox="0 0 1230.33 733.96"><defs><style>.cls-1{fill:none;}.cls-2{fill:url(#linear-gradient);}.cls-3{fill:url(#linear-gradient-2);}.cls-4{fill:url(#linear-gradient-3);}.cls-5{fill:#034442;}.cls-6{clip-path:url(#clip-path);}.cls-7{fill:#067267;}.cls-7,.cls-8{opacity:0.2;}.cls-8{fill:#076d68;}</style><linearGradient id="linear-gradient" x1="22.93" y1="312.26" x2="1207.4" y2="312.26" gradientUnits="userSpaceOnUse"><stop offset="0" stop-color="#b7713d"/><stop offset="1" stop-color="#c17e40"/></linearGradient><linearGradient id="linear-gradient-2" x1="616.8" y1="745.64" x2="616.8" y2="661.56" gradientUnits="userSpaceOnUse"><stop offset="0" stop-color="#56381d"/><stop offset="1" stop-color="#774c28"/></linearGradient><linearGradient id="linear-gradient-3" x1="615.17" y1="601.98" x2="615.17" y2="698.49" gradientUnits="userSpaceOnUse"><stop offset="0" stop-color="#af6b38"/><stop offset="1" stop-color="#a36634"/></linearGradient><clipPath id="clip-path"><rect class="cls-1" x="45.86" y="42.78" width="1138.6" height="555.88"/></clipPath></defs><rect class="cls-2" x="22.93" y="19.85" width="1184.47" height="584.82"/><rect class="cls-3" x="25.2" y="688.3" width="1183.19" height="42.89"/><rect class="cls-4" y="604.95" width="1230.33" height="85.78"/><rect class="cls-5" x="45.86" y="42.78" width="1138.6" height="562.17"/><g class="cls-6"><path class="cls-7" d="M291.13-41.29c-18.59,20-66.56,71.47-69.79,143.57-5.1,113.86,104.91,200.62,161.52,245.27C536.68,468.85,709.8,492.13,793.63,497.1c92.77,5.5,414,24.53,561.19-195.47,15.89-23.75,112-173.26,57-305C1289.25-296.81,511.22-277.63,291.13-41.29Z"/><path class="cls-8" d="M472.92-151.4c-10.69,13-38.26,46.64-40.11,93.68-2.93,74.29,60.29,130.9,92.82,160,88.4,79.15,187.89,94.34,236.08,97.58,53.31,3.59,237.94,16,322.51-127.53,9.13-15.5,64.37-113,32.74-199C1046.54-318.11,599.4-305.6,472.92-151.4Z"/></g></svg>