<svg id="Layer_1" data-name="Layer 1" preserveAspectRatio = "none" xmlns="http://www.w3.org/2000/svg" xmlns:xlink="http://www.w3.org/1999/xlink" viewBox="0 0 1230.33 733.96"><defs><style>.cls-1{fill:none;}.cls-2{fill:url(#linear-gradient);}.cls-3{fill:url(#linear-gradient-2);}.cls-4{fill:url(#linear-gradient-3);}.cls-5{fill:#034442;}.cls-6{clip-path:url(#clip-path);}.cls-7{fill:#067267;}.cls-7,.cls-8{opacity:0.2;}.cls-8{fill:#076d68;}.cls-9{fill:#fff;}</style><linearGradient id="linear-gradient" x1="22.93" y1="312.26" x2="1207.4" y2="312.26" gradientUnits="userSpaceOnUse"><stop offset="0" stop-color="#b7713d"/><stop offset="1" stop-color="#c17e40"/></linearGradient><linearGradient id="linear-gradient-2" x1="616.8" y1="745.64" x2="616.8" y2="661.56" gradientUnits="userSpaceOnUse"><stop offset="0" stop-color="#56381d"/><stop offset="1" stop-color="#774c28"/></linearGradient><linearGradient id="linear-gradient-3" x1="615.17" y1="601.98" x2="615.17" y2="698.49" gradientUnits="userSpaceOnUse"><stop offset="0" stop-color="#af6b38"/><stop offset="1" stop-color="#a36634"/></linearGradient><clipPath id="clip-path"><rect class="cls-1" x="45.86" y="42.78" width="1138.6" height="555.88"/></clipPath></defs><rect class="cls-2" x="22.93" y="19.85" width="1184.47" height="584.82"/><rect class="cls-3" x="25.2" y="688.3" width="1183.19" height="42.89"/><rect class="cls-4" y="604.95" width="1230.33" height="85.78"/><rect class="cls-5" x="45.86" y="42.78" width="1138.6" height="562.17"/><g class="cls-6"><path class="cls-7" d="M291.13-41.29c-18.59,20-66.56,71.47-69.79,143.57-5.1,113.86,104.91,200.62,161.52,245.27C536.68,468.85,709.8,492.13,793.63,497.1c92.77,5.5,414,24.53,561.19-195.47,15.89-23.75,112-173.26,57-305C1289.25-296.81,511.22-277.63,291.13-41.29Z"/><path class="cls-8" d="M472.92-151.4c-10.69,13-38.26,46.64-40.11,93.68-2.93,74.29,60.29,130.9,92.82,160,88.4,79.15,187.89,94.34,236.08,97.58,53.31,3.59,237.94,16,322.51-127.53,9.13-15.5,64.37-113,32.74-199C1046.54-318.11,599.4-305.6,472.92-151.4Z"/></g><path class="cls-9" d="M313.64,103.07l-.22-.1S313.47,103.05,313.64,103.07Z"/><path class="cls-9" d="M310,135.7h0Z"/><path class="cls-9" d="M304.13,101.05h0l.05,0Z"/><path class="cls-9" d="M316.69,100.19c-1.63-.24-2.68-.42-3.75-.53a13,13,0,0,0-3.9.19,21.92,21.92,0,0,0-4.9,1.19c-.62.57-2,.68-2.75,1.36l-.41-.05a1.75,1.75,0,0,1-.88.51v-.06c-.35.35-.87.52-1,.72v-.06l-.48.32,0-.12a12.15,12.15,0,0,1-1.95,1.45l.2.16c-1.42.78-1.5,1.55-2.74,2.34l0-.06a5.57,5.57,0,0,1-1.45,1.87,3.78,3.78,0,0,0-1.29,2c.05-.25-.16,0-.2,0-.36.82-.75,1.68-.28,1.9-.24.58-.34.42-.54.43.21.08.05.6,0,1.09l0-.25c-.11.47-.22.93-.31,1.4.14-.07.31-.12.46-.18-.28.69-.53.08-.56.81l.33,0c-.26,1-.76,1.56-1,2.64a11.38,11.38,0,0,0,2.12,6.24c1.22,1.8,2.68,3.24,3.89,4.72l0,.3c-.18.33,1.15.26,1.05.6l.45.14c.05.13.21.34,0,.28a1.16,1.16,0,0,0,.66.29l.21.44c1.2,1.07,2.55,1.42,3.91,2.33,1.46,1.44,5,2.75,7.08,3.28a21.4,21.4,0,0,1,4.41,1.77,11.62,11.62,0,0,0,4.63,1.33.38.38,0,0,0,.37,0c.92.19,1.84.4,2.77.55l.56.08c.35.05.83.12,1.39.16a18.54,18.54,0,0,0,3.57,0c1.06-.13,1.79-.37,1.62-.79s-1.24-1-3.62-1.95l.08-.07a7,7,0,0,0-3.38-.27c-.08-.5-1.17-.25-1.48-.47l0,0c-1,.23-1.72-.69-2.63-.54a.27.27,0,0,1,.28-.12c-.61-.09-1.47-.2-1.44-.49-1.45-.31-3.37-1.08-4.42-1l.09-.05c-.62.1-.67-.21-1.3-.28,0,0-.05-.08,0-.09-.66.05-1.63-.62-2.11-.7l.05-.19-1.1-.46.39.23c-.37.41-.67-.67-1.58-.76-.69-.41-2,.19-2.59-.44-.48,0,.51-.18-.11-.31.12-.24.33,0,.3-.27-.57-.19-.68-.74-1.4-1l.09-.2c-1-.17-1.34-1.19-2.06-1.23-.89-.41-.16-.88-1.2-1.14l-.13-.46c-.29-.29-.45.09-.73-.31.14-.12-.35-.49,0-.44-.59-.88-1.86-1.12-2.36-2.45-.45,0-.7-.65-1-.67.08-.11-.7-1.12,0-.68.06,0,.11.13.06.16l.22-.05c-.06-.8-.87-1-1.12-1.67,0,.21.17.46,0,.35a6.44,6.44,0,0,1-.24-.61l.21.06c-.09-.32-.17-.63-.23-.94l-.17.19c-.05-.49.32-.73-.1-1.17-.23-.2-.2.5-.37,0a7.38,7.38,0,0,1,.11-1.16c0-.41.14-.84.18-1.23-.24.06-.23-.16-.27-.39h.22c-.15-.89.52-.24.42-1.1l.13.11c-.14-.11-.27-.21-.39-.32-.18-.86.52-.27.25-1.28-.1.34-.51,0-.25-.38l.15.18c.05-.24,0-.35.1-.48.05.17.25.18.35-.16l.15.32a4.9,4.9,0,0,1-.08-.76c.43-.37.58-1.23,1-1.25a3.81,3.81,0,0,0,.34-.48c.15-.27.35-.55.3-.76,0,.3.46-.15.53.14a1.54,1.54,0,0,1,.83-1.25l0,.07c1-.76,1.34-1.79,2.44-2.29-.2-.16.39-.41.08-.58a3,3,0,0,1,1.39-.84c.43-.17.73-.36.7-.88.48-.31.7-.11,1-.2l-.09.11a8.72,8.72,0,0,1,1.92-.88c.34-.22.25-.69,1-.8-.17.24.1.12.36.05-.16.07-.19.15.18.17a.43.43,0,0,1,.16-.17s0,0,0,0c.4-.18.32-.22.11-.18,0,0,0-.06-.1-.09.5.08,1.26-.33,1.38,0,1.28-.36,2.18-.8,3.3-1,.14.15-.11.31-.43.41.26,0,.52-.1.79-.13,0,.23-.44.16-.68.24,1,.27,1.91-.53,3-.2l.23-.17.07,0c0-.1.25-.22.41-.25.15.21,0,.46.52.47a4.34,4.34,0,0,0,1.81-.07c-.3-.07-.19-.16-.05-.22s.41.25.63.19v.27c-.08-.26.75-.18.87-.27.12.22-.45.11-.54.25,1.08.14.54.08,1.62.25.62-.09-.05-.27.28-.45a3.76,3.76,0,0,1,1.61.32l-.12-.29a3.61,3.61,0,0,1,2.14.77,23.36,23.36,0,0,0,3.66.23c.62-.07.7-.33.56-.64a3.59,3.59,0,0,0-1-1,5.89,5.89,0,0,0-.75-.49,9.72,9.72,0,0,0-3.86-1.44C319.94,100.43,318.58,100.31,316.69,100.19Z"/><path class="cls-9" d="M293.94,93.68l-.14.06S293.89,93.75,293.94,93.68Z"/><path class="cls-9" d="M283.67,119.84a0,0,0,0,0,0,0S283.68,119.84,283.67,119.84Z"/><path class="cls-9" d="M289.14,96.33h0v0Z"/><path class="cls-9" d="M291.65,91.2c-.71,1.32-1.3,1.5-1.74,3a17,17,0,0,0-.77,2.13c.2.46-.36.88-.24,1.37l-.25.07c0,.17,0,.35-.12.43l0,0c.07.25-.11.44-.08.56l0,0-.08.25-.06-.08a1.72,1.72,0,0,1-.31,1l.24.07c-.53.55-.15,1-.7,1.46l-.05,0c.3,1-.89,1-.63,2,0-.13-.13,0-.19,0-.07.38-.19.78.26,1-.11.26-.23.16-.41.12.19.08.19.34.12.55l0-.13-.16.61.42,0c-.23.26-.49-.11-.51.22l.31.12c-.23.41-.8.47-1.19.79-.81,1.67-.72,3.83-1.87,5.23l-.27,0c-.35-.1.35.64,0,.58l.09.24c-.08,0-.19.12-.23,0-.08.17,0,.19,0,.35l-.28.11c-.42.62-.23,1.36-.57,2-.75.7-.94,2.48-1,3.51,0,1.5-1.87,2.56-1.74,4.13-.07,0,0,.18.05.19l-.48,1.23s-2.13,6,2.28,2.37l.06.06a1.63,1.63,0,0,0,.37-1.63c.49.09.24-.54.44-.64l0,0c-.22-.53.59-.74.41-1.25,0,0,.15.08.13.17,0-.31.07-.74.35-.67.17-.71.63-1.63.35-2.22l.07,0c-.21-.35.07-.34,0-.67,0,0,.07,0,.08,0-.19-.38.24-.82.19-1.08l.19,0,.15-.56-.11.19c-.47-.25.46-.31.28-.82.2-.34-.76-1.12-.37-1.42-.17-.26.31.3.23,0,.26.09.12.19.35.19,0-.31.42-.34.37-.74l.2.06c-.2-.56.57-.71.33-1.13,0-.5.7-.08.48-.69l.34-.07c.11-.19-.28-.27-.07-.44.17.08.24-.23.35,0,.45-.4,0-1.15.7-1.63-.28-.27.05-.52-.16-.72.15,0,.27-.65.44-.16,0,0,0,.09-.07.07l.18.12c.51-.24.06-.76.26-1.1-.11.08-.15.23-.24.08l.15-.33.14.14.29-.47H288c.2-.21.58-.16.4-.56-.11-.19-.36.13-.33-.16a5.51,5.51,0,0,0,.9-1.09c-.24,0-.19-.16-.19-.3l.21.07c-.1-.56.5,0,.45-.53l.13.1-.37-.28c-.24-.56.49-.06.13-.72,0,.19-.47-.09-.29-.27l.17.13c0-.14-.06-.21,0-.27.08.11.26.15.3,0l.19.21-.21-.47c.3-.18.21-.69.52-.69,0,0,.36-.5.11-.75.14.19.34-.09.52.09-.15-.23-.15-.73.14-.8v0c.48-.54.13-1.2.63-1.65-.24-.07,0-.31-.31-.36-.05-.7,1-.81.22-1.4.06-.28.34-.22.44-.34l0,.08a4.86,4.86,0,0,1,.36-1c0-.22-.42-.42-.18-.71.13.18.15,0,.2-.09,0,.09,0,.14.23,0a.28.28,0,0,1-.07-.13h0c0-.23,0-.22-.1-.13s-.06,0-.12,0c.31-.12.24-.6.53-.51a13.14,13.14,0,0,0,.2-1.77c.17,0,.25.19.25.36l.1-.39c.21.1,0,.26,0,.39.53-.28.05-1,.58-1.4l-.12-.18,0,0a.34.34,0,0,1-.15-.29c.21,0,.42.19.52-.06.26-.13.15-.61.17-.91-.09.13-.18,0-.21,0s.26-.12.22-.25l.26.1c-.26-.06-.11-.44-.19-.53.21,0,.07.26.19.36l.3-.77c-.07-.35-.25-.06-.41-.28.05-.26,0-.56.25-.77h-.25a1,1,0,0,1,.53-1c-.3-4.11-2.12-1.8-2.12-1.8C291.83,88.6,292.17,89.56,291.65,91.2Z"/><path class="cls-9" d="M267.45,85.74l.12.25S267.58,85.87,267.45,85.74Z"/><path class="cls-9" d="M235.87,114a.12.12,0,0,0-.05,0S235.86,114,235.87,114Z"/><polygon class="cls-9" points="269.24 94.95 269.23 94.94 269.2 94.9 269.24 94.95"/><path class="cls-9" d="M263.29,86.4a11.86,11.86,0,0,1,2.34,2.31c.58.71,1.11,1.42,1.95,2.54a14.15,14.15,0,0,1,1.65,3.69c.49.55.29,1.69.56,2.43l-.19.29a1,1,0,0,1,0,.83l-.06,0a3.62,3.62,0,0,1,0,1l-.05,0-.07.48-.07-.1a4.23,4.23,0,0,1-.41,2l.25,0a5.55,5.55,0,0,0-.61,1.5,3.59,3.59,0,0,1-.73,1.34l0,0a3,3,0,0,1-1,1.82,4.39,4.39,0,0,0-1.21,1.76c.07-.21-.15,0-.19-.06-.4.65-1,1.26-.6,1.61-.39.42-.42.24-.61.16.16.15-.13.56-.44.88l.08-.2c-.28.31-.56.64-.87.93l.46.13c-.6.37-.46-.25-.89.25l.23.25c-.75.59-1.53.5-2.38.85-1.53,1-3.13,2.18-4.8,3.09a11,11,0,0,1-5.18,1.53l-.18-.22c-.11-.36-.84.67-1,.33l-.37.2c-.11-.06-.34-.13-.16-.21a.9.9,0,0,0-.61.17,3.85,3.85,0,0,1-.38-.23c-1.36-.21-2.54.06-3.89-.54-.73-.5-1.81-1-2.83-1.76a12,12,0,0,1-2.55-2.25,4.52,4.52,0,0,1-1-3.79,5.28,5.28,0,0,1,1.36-2.71c.07,0,.14-.17.13-.2a4.19,4.19,0,0,1,2-.33,10.89,10.89,0,0,1,1.65.19c1,.16,2.19.51,3.16.76s1.72.37,1.77-.08-.55-1.53-2.95-3.14l.1,0a5.22,5.22,0,0,0-3.93-.5c-.21-.51-1.51,0-2,0l0,0a7.18,7.18,0,0,1-.83.42,6.71,6.71,0,0,0-.89.37,3.11,3.11,0,0,0-.82.53,1.72,1.72,0,0,0-.55.76.39.39,0,0,1,.07-.39,11.67,11.67,0,0,0-.72,1.21c-.19.38-.33.67-.48.66a7.83,7.83,0,0,0-.3,3.29,4.83,4.83,0,0,0,.89,2.42l-.1,0c.52.51.34.79.82,1.37,0,0,0,.11,0,.11.59.47,1.14,1.7,1.64,2l-.12.16a12.91,12.91,0,0,0,1,.95l-.35-.38c.25-.13.38.11.57.43a1.9,1.9,0,0,0,1,.87c.74.62,2.12,0,2.79.65.5-.07-.51.22.17.29-.09.26-.36,0-.29.31.66.13.92.66,1.77.73l0,.21c1.12-.1,2,.69,2.74.37,1.1-.13.73.69,1.89.24.15.09.31.19.47.27.5,0,.32-.39.88-.3,0,.19.71.05.41.27,1.32.1,2.4-.85,4.07-.91.23-.44,1.05-.53,1.19-.87.1.13,1.49-.62.79,0-.06,0-.19.1-.2,0l0,.23c1,0,1.44-.89,2.26-1.24-.27.06-.58.23-.43,0l.74-.37-.06.24c.38-.17.76-.33,1.13-.52l-.26-.1c.58-.21,1,0,1.38-.63.16-.31-.65,0-.15-.35a15.56,15.56,0,0,0,2.76-1.43c-.23-.14,0-.3.19-.52l.16.15c.65-1,.61.09,1.29-.82l0,.18-.08-.53c.43-1,.7,0,1.08-1.23-.28.33-.48-.19,0-.49l.06.24c.18-.24.17-.38.34-.49,0,.2.15.27.42-.08v.4l.27-.87c.61-.31,1-1.31,1.4-1.32a3.45,3.45,0,0,0,.46-.57,1.61,1.61,0,0,0,.38-.91c0,.34.5-.25.57.06a2.83,2.83,0,0,1,.83-1.68l0,.08a6.43,6.43,0,0,0,.94-1.92,7.16,7.16,0,0,1,.73-1.9c-.25,0,.1-.71-.26-.62a3.55,3.55,0,0,1,.25-1c.09-.32.21-.61.3-.87.2-.54.26-1-.21-1.31,0-.67.3-.77.38-1.12l0,.16c0-.63-.07-1-.07-1.42a10.61,10.61,0,0,0-.08-1.17c-.17-.46-.6-.46-.65-1.29.25.22.13-.1.05-.4.08.18.16.23.17-.2a.63.63,0,0,1-.17-.19s0,0,0,0c-.2-.49-.23-.38-.19-.14,0,0-.06,0-.09.11.12-.6-.47-1.42-.2-1.59a11.8,11.8,0,0,0-2.35-3.2c0-.21.34-.06.61.21l-.59-.7c.19-.14.42.34.62.55-.35-1.13-1.64-1.58-2.31-2.67l-.32,0,0-.07c-.06.07-.36,0-.52-.12,0-.27.32-.34-.17-.74-.24-.49-1.16-.79-1.74-1.08.27.22.11.25-.05.23-.26-.17-.3-.43-.54-.49l.12-.24c0,.27-.82-.21-1-.16-.05-.26.5.08.64,0-1.07-.62-.53-.32-1.61-.9-.68-.12,0,.28-.41.34a5.89,5.89,0,0,1-1.62-.71l.08.3a5.21,5.21,0,0,1-2.18-1,9.14,9.14,0,0,0-3.73.11c-.57.19-.61.47-.39.74a3.38,3.38,0,0,0,1,.77c.38.22.71.37.71.37a19.15,19.15,0,0,0,3.36,1.41A16.19,16.19,0,0,1,263.29,86.4Z"/><path class="cls-9" d="M222.92,87.62l.35.1S223.17,87.64,222.92,87.62Z"/><path class="cls-9" d="M214.69,120.26l.08,0Z"/><path class="cls-9" d="M235.06,80.4v0l0,.13Z"/><path class="cls-9" d="M218.07,90.24a29.72,29.72,0,0,0,6.17.74,12.26,12.26,0,0,0,3-.39,10.69,10.69,0,0,0,3.64-1.74,9.9,9.9,0,0,0,3.24-3.51,8.27,8.27,0,0,0,1-4.91,19.47,19.47,0,0,0-.94-2.74,6,6,0,0,0-1.76-2.33c-.09-.21-.21-.4-.31-.61a10.09,10.09,0,0,1-1.48-1.09l.06,0a16.67,16.67,0,0,0-2.06-.92l.05,0c-.33-.1-.67-.23-1-.3l.19,0a25.62,25.62,0,0,0-4.21-.4l.12.25a8.12,8.12,0,0,0-3.08.39c-.83.25-1.6.52-2.74.78v-.07c-.63.41-1.19.75-1.73,1a17.38,17.38,0,0,1-1.63.7,15.36,15.36,0,0,0-1.57.87,8,8,0,0,0-.8.58,5.1,5.1,0,0,0-.73.79c.24-.3-.21,0-.22-.07a14.13,14.13,0,0,0-1.4,1.37c-.32.44-.49.79-.32,1-.7.7-.68.47-.91.43.16.14-.38.81-.83,1.43l.16-.33-1.33,1.76.59-.09c-.79.84-.57-.06-1.12.91l.28.18a13.52,13.52,0,0,1-1.41,1.54,19,19,0,0,0-1.4,1.56,30.72,30.72,0,0,0-3,9.42,84.77,84.77,0,0,0-.89,9.47l-.24.28c-.4.14.66,1.62.34,1.87l.23.68c0,.21-.07.63-.19.29a2.28,2.28,0,0,0,.31,1.1l-.11.72a13.56,13.56,0,0,0,.84,3.62,33.72,33.72,0,0,0,1.58,3.61,8.9,8.9,0,0,0,4.93,5,9.59,9.59,0,0,0,3.94.61,14,14,0,0,0,3.17-.54l3.65-1.13c1.24-.36,2.51-.73,3.77-1.15a22.22,22.22,0,0,0,7-3.5.93.93,0,0,0,.43-.4q1.94-1.2,3.77-2.57s1.11-.83,2.46-2A29.76,29.76,0,0,0,239.4,108c1-1.38,1.55-2.47,1.06-2.51s-2,1-5.39,3.2l0-.13a25,25,0,0,0-4.06,3.66c-.49-.22-1.59,1.11-2.15,1.29l0-.07c-1,1.13-2.64,1.34-3.68,2.3a.44.44,0,0,1,.27-.35c-.85.55-2,1.28-2.22,1-2.1,1.17-5.25,2.27-6.58,3.14l.07-.1c-.74.57-1.06.39-1.95.79-.06,0-.13,0-.12,0-.84.56-2.63.55-3.32.64l-.05-.19a8.41,8.41,0,0,1-1.68-.13,5.44,5.44,0,0,0,.61.15c-.14.24-.47.12-.87-.09a5.67,5.67,0,0,0-1.46-.65,11.31,11.31,0,0,0-1.71-.67,2.56,2.56,0,0,1-1.5-1.27c-.56-.39.64.24,0-.44.22-.17.38.27.43,0-.58-.7-.48-1.4-1.08-2.35l.19-.12c-.9-1.24-.58-2.71-1.13-3.59-.43-1.51.44-1.13-.22-2.65l.23-.66c0-.68-.4-.45-.33-1.22.18,0,.06-1,.27-.54a11.45,11.45,0,0,0-.1-2.66,9,9,0,0,1,.3-3.06c-.29-.52.05-1.63-.16-2,.14,0,.45-2.25.53-.93,0,.11,0,.3-.09.28l.18.18c.63-1.17.2-2.32.63-3.54-.16.35-.28.84-.33.48l.34-1.14.1.29a16.3,16.3,0,0,1,.63-1.64l-.29.16c.41-.77.82-.93.9-1.94,0-.46-.61.64-.3-.22l1.07-1.77c.42-.63.87-1.28,1.24-1.9-.27,0-.1-.35.1-.71l.21.08c.6-1.44.7-.21,1.34-1.6l0,.2c0-.2-.09-.39-.12-.58.54-1.33.8-.29,1.33-1.84-.36.49-.57-.12,0-.58l0,.27c.26-.32.29-.48.52-.65-.1.26.12.3.52-.15l-.1.47.53-1.08c.83-.4,1.72-1.51,2.18-1.49,0,0,1.64-.9,1.84-1.41-.23.35.72-.07.57.27A4.17,4.17,0,0,1,218.84,77l-.09.07c1-.29,1.8-.63,2.6-.91a5.61,5.61,0,0,1,2.48-.35c-.09-.25.84-.11.62-.43a4.27,4.27,0,0,1,2.36.45c.6.27,1,.49,1.55.22.75.38.7.72,1,1l-.17-.08a5.92,5.92,0,0,1,1.21,1.13,5.29,5.29,0,0,1,.69,1.14c.14.22.34.31.5.49a1.2,1.2,0,0,1,.35.92c-.22-.29-.12.1-.12.46,0-.23-.09-.28-.21.17a.44.44,0,0,1,.11.26s0,0,0,0c0,.59.07.51.12.23,0,0,.07,0,.13-.09-.14.31-.23.73-.36,1.09s-.28.62-.43.58a8.21,8.21,0,0,1-3.29,3.71c-.25-.06.06-.36.45-.65a8.06,8.06,0,0,1-1,.57c-.07-.21.57-.38.86-.6a14.18,14.18,0,0,0-2,.79,4.55,4.55,0,0,1-2.38.39,3.9,3.9,0,0,1-.35.19l-.1,0c0,.1-.38.24-.65.26-.25-.21,0-.45-.84-.48a14.56,14.56,0,0,0-2.91-.14c.49.11.32.2.09.23-.45-.06-.67-.31-1-.28V87c.13.29-1.22,0-1.41.12-.22-.24.73,0,.87-.16-1.8-.33-.92-.15-2.67-.52-1,0,.11.3-.39.42a7.6,7.6,0,0,1-2.57-.7l.21.33a5.86,5.86,0,0,1-3.22-1.63,8.29,8.29,0,0,1-4.19-3.83c-.5-.84-.72-.69-.89-.24a4.78,4.78,0,0,0,0,1.17,6,6,0,0,0,.38,1.43,5.56,5.56,0,0,0,.55,1.12c.17.28.28.44.28.44a9.42,9.42,0,0,0,3,2.74A14.1,14.1,0,0,0,211,89,53.11,53.11,0,0,0,218.07,90.24Z"/><path class="cls-9" d="M178.35,65.44l.07.15S178.43,65.5,178.35,65.44Z"/><path class="cls-9" d="M192.56,92.2a.08.08,0,0,0,0,0S192.57,92.2,192.56,92.2Z"/><path class="cls-9" d="M180.39,70.81h0Z"/><path class="cls-9" d="M175.87,67.78a4.86,4.86,0,0,1,1.32.89,5.68,5.68,0,0,0,1.37.89c.56.43,1.24.81,1.83,1.24.49,0,.73.62,1.23.7l0,.26c.18,0,.35.09.37.27l0,0c.26,0,.36.28.49.3l0,0,.21.17-.1,0a1.72,1.72,0,0,1,.84.75l.16-.19c.3.73.86.61,1.05,1.34l-.05,0c1.05.24.51,1.32,1.56,1.64-.13,0-.07.12-.12.15.31.28.61.6,1,.3.18.25,0,.29-.1.44.17-.13.4,0,.55.19l-.13,0,.46.49.24-.35c.12.36-.34.37-.06.58l.27-.2c.23.44,0,1,0,1.48.47.83,1.11,1.56,1.63,2.36a3.91,3.91,0,0,1,.8,2.53l-.23.12c-.36.11.62.32.3.45l.21.16c-.06.06-.12.18-.21.1,0,.18.06.17.19.28l-.21.21a2.61,2.61,0,0,0,.11,1,1.94,1.94,0,0,1,.08,1c-.51.83-.46,2.47-.62,3.49a2.73,2.73,0,0,1-1.15,1.86,4.15,4.15,0,0,0-1.4,1.65c-.07,0-.06.16,0,.19a10.76,10.76,0,0,1-.95.84l-.19.16c-.13.09-.3.23-.49.39s-.4.34-.62.52-.41.38-.59.55c-.36.36-.57.76-.34,1.11a1.39,1.39,0,0,0,.77.45,5.42,5.42,0,0,0,.78.15,7.78,7.78,0,0,0,1.06,0v.09a3,3,0,0,0,1-.53,1.44,1.44,0,0,0,.52-.8c.39.3.57-.44.82-.46l0,0c.07-.66,1-.57,1.06-1.21,0,0,.11.13.05.23.18-.34.41-.81.66-.66.24-.39.54-.84.78-1.28a2.22,2.22,0,0,0,.29-1.25l.05.07c-.14-.43.13-.4.14-.79,0,0,.07,0,.08,0-.12-.43.32-1,.29-1.28l.19,0a5.32,5.32,0,0,0,.16-.69l-.1.25c-.49-.23.45-.43.24-1,.17-.46-.91-1.12-.58-1.52-.23-.25.38.24.22-.11.27,0,.16.17.38.11-.1-.35.32-.54.17-1h.21c-.38-.55.28-1.06-.11-1.42-.23-.55.59-.45.11-1l.25-.28c0-.27-.38-.13-.3-.44.18,0,.06-.39.26-.26.15-.75-.71-1.19-.55-2.16-.4,0-.36-.52-.67-.54.14-.08-.32-.79.18-.49,0,0,.07.09,0,.12l.21,0c.16-.62-.57-.71-.74-1.16,0,.16.11.32-.08.27l-.18-.39h.2c-.07-.21-.15-.42-.23-.62l-.15.19c-.06-.33.2-.63-.26-.77-.23,0-.09.41-.32.16a6,6,0,0,0-.51-1.55c-.17.18-.24,0-.37,0l.16-.14c-.56-.28.27-.45-.25-.76l.15,0-.45.15c-.64-.14.19-.48-.6-.57.16.15-.31.37-.4.1l.21-.07c-.13-.09-.23-.07-.25-.18.14,0,.26-.14.1-.29l.3,0-.55-.08c0-.39-.55-.6-.4-.88,0,0-.3-.6-.65-.53.24,0,.06-.35.31-.42-.29,0-.76-.28-.71-.59h0c-.32-.75-1.11-.79-1.36-1.5-.17.19-.31-.18-.49.1-.7-.31-.45-1.4-1.32-.9-.27-.19-.12-.44-.21-.59l.1,0a8.34,8.34,0,0,1-1-.82c-.24-.08-.56.24-.8-.12.22-.05.07-.13,0-.23.09,0,.16,0,.08-.21a.52.52,0,0,1-.17,0s0,0,0,0c-.25-.12-.25,0-.17,0a.19.19,0,0,0,0,.11c-.06-.34-.59-.45-.42-.71a9,9,0,0,0-1.93-.72c0-.17.23-.21.43-.16l-.43-.2c.12-.19.3,0,.45.07-.29-.62-1.17-.29-1.6-.88l-.21.11,0,0a.34.34,0,0,1-.32.12c0-.22.2-.41-.12-.53-.17-.27-.73-.2-1.09-.2.17.08.07.17,0,.22s-.19-.26-.33-.21l.06-.27c0,.27-.5.15-.58.24,0-.22.29-.1.37-.23a4.78,4.78,0,0,0-1-.19c-.39.14,0,.26-.19.47a2,2,0,0,1-1,0l.1.25a1.54,1.54,0,0,1-1.28-.09,3.17,3.17,0,0,0-1.52,1.52.66.66,0,0,0,.15.81,1.67,1.67,0,0,0,.95.4,1.93,1.93,0,0,0,.78.11,2.65,2.65,0,0,0,.68-.09A4.3,4.3,0,0,1,175.87,67.78Z"/><path class="cls-9" d="M231.34,221l.21-.18S231.44,220.82,231.34,221Z"/><path class="cls-9" d="M259.45,161l.06,0A.16.16,0,0,0,259.45,161Z"/><path class="cls-9" d="M238.83,213.28h0v0Z"/><path class="cls-9" d="M232.4,225.29c1-1.51,1.69-2.41,2.31-3.38a20.16,20.16,0,0,0,2-3.68,51.8,51.8,0,0,0,2.13-4.94c0-.89.86-2.09,1-3.1l.33-.26a1.88,1.88,0,0,1,.34-1l.05,0a9.86,9.86,0,0,1,.33-1.26l.05,0,.19-.57,0,.13a10.18,10.18,0,0,1,.8-2.41l-.26,0c.83-1.47.57-2.22,1.37-3.52l.05,0c0-2,1.42-2.69,1.46-4.75,0,.26.16,0,.21,0,.22-.88.5-1.8,0-2,.22-.62.32-.45.52-.47-.2-.07-.1-.64.05-1.12v.25l.4-1.41-.48.14c.37-.7.53,0,.68-.76l-.32-.1a15,15,0,0,1,1.68-2.32c1.55-4,2.36-8.64,4.46-12.08l.3-.06c.37.07-.07-1.22.3-1.23l0-.49c.11-.09.29-.31.27-.07a1.46,1.46,0,0,0,.16-.75l.4-.32c.88-1.43,1.05-3,2-4.42.69-.79,1.44-2,2.27-3.15a11.68,11.68,0,0,1,2.59-2.68,4.55,4.55,0,0,1,4.2-.53,44.85,44.85,0,0,1,4.14,1.78.39.39,0,0,0,.34.11,14.38,14.38,0,0,1,2,1.87s.59.62,1.33,1.51,1.63,2,2.39,2.91,1.43,1.41,1.67,1,.14-1.69-.91-4.52l.11,0a6.84,6.84,0,0,0-2.73-3.07c.22-.49-1-1.08-1.26-1.45h.06c-1.08-.42-1.71-1.67-2.88-1.88a.35.35,0,0,1,.37,0c-.74-.35-1.82-.63-1.78-.92a12.17,12.17,0,0,0-3.26-.64,5.18,5.18,0,0,0-2.78.55l.07-.1c-.64.47-.91.28-1.62.73-.05,0-.11,0-.11,0-.61.56-2,1.15-2.36,1.67l-.15-.12a12,12,0,0,0-1.07,1.07l.42-.37c.24.5-1.06.56-1.45,1.64-.68.77-.25,2.22-1,2.92,0,.53-.14-.56-.32.14-.25-.11,0-.37-.27-.32-.23.66-.8.86-1,1.71l-.2-.07c-.15,1.17-1.15,1.76-1.13,2.58-.31,1.1-.91.42-1,1.67l-.44.3c-.24.45.18.48-.17.93-.15-.1-.41.6-.44.23-.78,1-.62,2.52-1.69,3.89.2.47-.31,1.17-.15,1.52-.16,0-.62,1.55-.6.56,0-.09.06-.22.11-.19l-.15-.18c-.71.75-.41,1.69-.79,2.55.16-.24.27-.59.32-.31l-.33.81-.11-.24-.53,1.19.27-.1c-.32.56-.75.65-.7,1.43.06.36.48-.47.32.18a28.16,28.16,0,0,0-1.47,2.87c.27,0,.16.26.11.55l-.21,0c-.1,1.17-.59.24-.73,1.39l-.11-.14.33.43c.07,1.1-.6.37-.42,1.64.11-.44.51-.05.24.44l-.14-.2c-.06.31,0,.43-.12.61-.05-.21-.25-.19-.37.25l-.14-.37.08.92c-.42.55-.49,1.62-.86,1.78,0,0-.59,1.29-.39,1.7-.1-.33-.42.37-.57.09a2.6,2.6,0,0,1-.46,1.82v-.09c-.75,1.43-.6,2.67-1.36,3.91.25,0-.13.69.23.62-.23,1.49-1.56,2.28-.83,3.13-.19.64-.5.66-.68,1v-.17a23.21,23.21,0,0,1-.9,2.38c-.09.46.32.72-.12,1.43-.06-.31-.17,0-.29.3,0-.2,0-.28-.26.05a.52.52,0,0,1,0,.25h0c-.15.5-.07.44.06.23,0,0,.06,0,.13,0-.43.39-.59,1.38-.9,1.31-.57,1.45-.8,2.58-1.25,3.81-.2.06-.2-.28-.09-.64l-.35.85c-.2-.11.11-.53.2-.81-.79.83-.72,2.17-1.61,3.15l0,.32-.06.05c.09,0,.07.36,0,.55-.26.06-.39-.24-.7.31a5.16,5.16,0,0,0-.88,1.9c.2-.29.24-.13.22,0s-.42.33-.47.59l-.24-.12c.28,0-.2.85-.17,1-.26,0,.12-.51,0-.65-.65,1.06-.32.54-1,1.56-.23.65.28.06.28.45a4.09,4.09,0,0,1-1.09,1.47h.32a3.44,3.44,0,0,1-1.89,1.64,12.11,12.11,0,0,1-3.17,2.6c-.59.41-.5.66-.19.85a3.79,3.79,0,0,0,1.83.13,6.33,6.33,0,0,0,1.17-.28,8.19,8.19,0,0,0,4.18-3.09A33.8,33.8,0,0,0,232.4,225.29Z"/><path class="cls-9" d="M202.57,193.53l.22.33S202.79,193.75,202.57,193.53Z"/><path class="cls-9" d="M186.46,226.17l.07,0C186.48,226.15,186.47,226.16,186.46,226.17Z"/><polygon class="cls-9" points="199.74 195.64 199.74 195.64 199.69 195.61 199.74 195.64"/><path class="cls-9" d="M197.38,192.81l1.8,2a2.82,2.82,0,0,1,.19.29l.07.13s0,0,0,0-.25,0,.06.14c0,0,0,0,0,0l.12.05.05,0s0,.06,0,.07c.38.23.24.21.12.18s-.22,0-.22.11l-.22-.23c0,.1-.09.17-.17.05v-.06a.14.14,0,0,1-.06.07s-.27,0-.38,0a3.56,3.56,0,0,0-.66,0l0-.06h-.72l.13-.08a17.22,17.22,0,0,1-3,.06l.08.25c-2-.21-2.71.34-4.55.25l0-.06a8.73,8.73,0,0,1-2.93.64,8.11,8.11,0,0,0-1.42.24,4.94,4.94,0,0,0-1.5.68c.26-.17-.16-.08-.16-.14-1,.41-2.11,1-1.92,1.41-.72.35-.65.16-.83,0,.11.21-.49.56-1,.91l.2-.22c-.49.34-1,.64-1.48,1l.51.14c-.84.43-.47-.28-1.16.32l.2.27c-1.08.7-2,.8-3.1,1.52a17.86,17.86,0,0,0-4.56,6.85,23.38,23.38,0,0,0-1.43,7.94l-.23.26c-.39.16.73,1.36.46,1.61l.31.55c0,.18,0,.56-.14.28a1.82,1.82,0,0,0,.47.9c0,.22,0,.45,0,.67.79,2.22,2.73,3.68,4.87,4.71a12.37,12.37,0,0,0,5,1.57,49.29,49.29,0,0,0,5.12.46,34.88,34.88,0,0,1,6.08.77,19.5,19.5,0,0,0,6.21.29.64.64,0,0,0,.46-.11c1.21,0,2.42,0,3.63-.06,0,0,1.1,0,2.53-.19a32.68,32.68,0,0,0,4.53-.76c1.33-.36,2.21-.77,1.92-1.14s-1.75-.69-5.05-1.12l.08-.09a12.18,12.18,0,0,0-4.44.5c-.23-.47-1.58,0-2-.14l0,0c-1.17.41-2.41-.28-3.54,0a.34.34,0,0,1,.33-.18c-.82.06-1.95.12-2-.16-2,0-4.68-.33-6,0l.1-.07c-.75.24-.93-.05-1.75,0,0,0-.09-.07-.08-.08-.82.21-2.27-.27-2.92-.24v-.19l-1.54-.21.56.13c-.29.49-1.1-.53-2.27-.41-1-.26-2.33.64-3.3,0-.57,0,.55-.22-.22-.3.07-.27.38-.05.28-.32-.73-.14-1-.68-1.74-1l.1-.2a1.87,1.87,0,0,1-1.12-.92,2.79,2.79,0,0,0-.75-1,1,1,0,0,1-.26-.92c0-.23,0-.43-.33-.92l.15-.51c-.08-.49-.44-.27-.41-.85.18,0,0-.72.25-.42a4.4,4.4,0,0,0,0-1,7.88,7.88,0,0,1-.12-1,4,4,0,0,1,.36-2.24c-.24-.43.13-1.22,0-1.55.16,0,.6-1.63.59-.6,0,.09-.05.22-.11.19l.16.18a2.65,2.65,0,0,0,.56-1.22,3.35,3.35,0,0,1,.44-1.3c-.2.22-.37.56-.37.27l.47-.78.06.26c.24-.38.55-.71.82-1.07l-.28,0c.45-.5.92-.42,1.13-1.2.08-.38-.62.31-.23-.29.34-.3.81-.64,1.26-1s1-.73,1.45-1.05c-.24-.12,0-.31.22-.55l.16.14c.77-1,.63.11,1.45-.77v-.37c.72-.91.71.06,1.48-1-.41.25-.43-.31.15-.5l0,.25c.27-.19.34-.32.55-.38-.12.2,0,.31.45.08l-.18.37c.21-.25.45-.47.67-.71.71-.09,1.71-.68,2.07-.51,0,0,1.49-.29,1.77-.66-.25.26.59.15.4.43a2.81,2.81,0,0,1,2-.54l-.08,0c1.74,0,2.94-.66,4.54-.41-.08-.25.76-.12.55-.44,1.68-.32,3,.74,3.66-.2a9.52,9.52,0,0,1,2.13.49l-.28,0a39.26,39.26,0,0,1,5.09.69c.82,0-.08-.57,1.7-.15,0,.19.54.25,1.15.36-.29,0-.26,0,1,.4-.05-.06,0-.09.09-.1l.17.07c.83.09.42,0-.12-.17a4.62,4.62,0,0,0-.54-.21,19.5,19.5,0,0,0,2.24.54,9.26,9.26,0,0,1,1.9.54l.65.1.29,0,.07,0a.17.17,0,0,0,0-.21l-3.63-1.91c-1.14-.6-2.16-1.15-3.07-1.68a9.38,9.38,0,0,1,2.43,1.06L208,197.47a12.75,12.75,0,0,1,2.41,1.26,8.89,8.89,0,0,0-1.59-1.08l-2.14-1.21-1-.58-.49-.29-.39-.26a9.83,9.83,0,0,1-1.33-1.12l-.59-.24-.06-.09a2,2,0,0,1-.81-.37c0-.3.43-.24-.39-1a3.24,3.24,0,0,0-.83-.82c-.36-.25-.73-.51-1-.75.25.32.08.3-.09.22-.25-.26-.24-.55-.5-.7l.18-.2c-.1.27-.82-.54-1-.57,0-.28.5.32.67.28-1-1.08-.49-.53-1.41-1.64-.64-.49-.11.26-.53.12a6.07,6.07,0,0,1-1.33-1.71l-.06.35a5.88,5.88,0,0,1-1.52-2.55A40.62,40.62,0,0,0,191,181.1c-.58-.47-.8-.32-.86.09a5.57,5.57,0,0,0,.26,1.72c.18.58.37,1.06.37,1.06a14.79,14.79,0,0,0,2.62,4.57C194.46,189.83,195.67,191.09,197.38,192.81Z"/><path class="cls-9" d="M152.72,201.07l.21-.11S152.83,201,152.72,201.07Z"/><path class="cls-9" d="M180.47,152s0,0,0-.06S180.46,152,180.47,152Z"/><path class="cls-9" d="M160.52,195.94h0V196Z"/><path class="cls-9" d="M153.34,205.13c1-1.12,1.8-1.76,2.47-2.49a14.8,14.8,0,0,0,2.22-2.81c.45-.61.89-1.26,1.31-1.91s.79-1.33,1.17-2c.08-.78,1.05-1.62,1.21-2.5l.34-.16a1.35,1.35,0,0,1,.41-.81l0,.05a8.61,8.61,0,0,1,.46-1l0,.05.23-.46,0,.12a6.82,6.82,0,0,1,1-1.94l-.25-.07c1-1.11.73-1.83,1.64-2.8l0,0c.2-1.73,1.6-2.07,1.81-3.84,0,.22.16,0,.21,0,.29-.72.62-1.47.19-1.7.26-.5.34-.34.54-.32-.19-.09-.05-.57.13-1l0,.21.5-1.15-.47,0c.4-.54.52.07.71-.54l-.3-.14c.46-.8,1.15-1.05,1.77-1.74,1.75-3.25,2.72-7.18,4.8-9.95l.29,0c.36.11,0-1.08.31-1l0-.43c.11-.07.28-.24.26,0a1.07,1.07,0,0,0,.16-.64L177,164c.82-1.2,1-2.47,1.84-3.76,1.3-1.35,2.62-4.55,3.5-6.24a7.14,7.14,0,0,1,2.78-3c1.15-.74,2.35-1.26,3.27-1.85.08,0,.23-.14.22-.18a6.81,6.81,0,0,1,2.11-.14,8.21,8.21,0,0,1,1.44.25,6.53,6.53,0,0,1,2.25,1.08c.6.44,1,.89,1.38.6a1.37,1.37,0,0,0,.18-1.17,4.7,4.7,0,0,0-1.61-2.71l.11,0a4.36,4.36,0,0,0-3.8-.84c-.17-.52-1.37-.05-1.76-.12l0,0a4.46,4.46,0,0,1-1.54.37,2.37,2.37,0,0,0-1.43.59c0-.06,0-.19.17-.29-.63.35-1.37,1-1.57.76-1.41,1-3.07,2.58-3.31,3.66l0-.11c-.11.64-.43.61-.67,1.21,0,0-.09,0-.1,0-.11.67-1,1.49-1.11,2l-.18-.07-.58,1,.26-.35c.37.4-.74.59-.87,1.51-.46.66.12,1.94-.51,2.52,0,.47-.18-.5-.3.11-.25-.12,0-.32-.28-.3-.16.57-.7.7-.88,1.41l-.2-.08c-.11,1-1.1,1.41-1.06,2.14-.29.93-.86.27-.95,1.35l-.44.21c-.24.36.17.44-.17.79-.15-.11-.4.47-.43.14-.74.83-.63,2.13-1.69,3.17.18.43-.33,1-.19,1.3-.15,0-.65,1.26-.6.4,0-.07.07-.18.12-.15l-.15-.18c-.71.55-.46,1.41-.86,2.1.17-.18.29-.47.33-.22l-.35.65-.1-.22-.57.94.26,0c-.34.43-.75.44-.74,1.12,0,.32.49-.33.3.21a22.15,22.15,0,0,0-1.59,2.24c.26,0,.14.25.07.5l-.2-.07c-.16,1-.58.11-.79,1.08l-.1-.15.29.43c0,1-.61.22-.52,1.34.14-.36.5,0,.21.43l-.14-.2c-.07.25,0,.37-.15.5,0-.19-.23-.21-.37.15l-.12-.34,0,.81c-.45.4-.61,1.31-1,1.38,0,0-.67,1-.52,1.38-.06-.3-.43.25-.55,0a1.87,1.87,0,0,1-.59,1.48v-.07c-.86,1.07-.79,2.2-1.65,3.1.24.07-.19.56.16.58-.34,1.25-1.68,1.66-1.08,2.53-.24.52-.54.46-.74.69l0-.14a14.74,14.74,0,0,1-1.07,1.88c-.13.38.22.68-.26,1.21,0-.29-.16,0-.3.2.07-.16,0-.24-.25,0a.45.45,0,0,1,0,.23h0c-.19.4-.1.37,0,.21,0,0,.06,0,.14,0-.45.26-.69,1.08-1,1-.7,1.12-1,2.08-1.53,3.06-.2,0-.16-.29,0-.59-.13.22-.26.45-.41.67-.18-.14.16-.44.26-.67-.83.54-.87,1.75-1.8,2.41v.29l-.07,0c.08,0,0,.33,0,.48-.26,0-.34-.29-.69.13-.42.2-.71,1-1,1.47.22-.2.24-.06.21.09s-.42.19-.49.41l-.22-.16c.26.09-.25.72-.24.87-.25,0,.15-.44.08-.59-.68.83-.35.44-1,1.19-.24.52.25.11.23.46-.31.37-.56.84-1.11,1l.28.11a1.64,1.64,0,0,1-1.85.54,3,3,0,0,1-2.11-.15,3.48,3.48,0,0,1-1.15-.91.67.67,0,0,0-.54-.32.43.43,0,0,0-.32.26,2.68,2.68,0,0,0,.51,2.08,3.85,3.85,0,0,0,1,1,4.61,4.61,0,0,0,3.25.84,5.1,5.1,0,0,0,1.42-.4,5.18,5.18,0,0,0,1.1-.66A16.53,16.53,0,0,0,153.34,205.13Z"/><path class="cls-9" d="M148.48,172.63h-.15S148.41,172.68,148.48,172.63Z"/><path class="cls-9" d="M127.07,195.18v0S127.07,195.18,127.07,195.18Z"/><path class="cls-9" d="M142.61,173.24h0v0Z"/><path class="cls-9" d="M147.7,169.28c-1.39,1-2,.91-3.25,2.18-.65.53-1.25,1.19-1.83,1.77-.05.53-.79.73-.93,1.26l-.27,0c0,.18-.13.36-.32.39l0,0c-.07.27-.32.38-.36.52l0,0-.19.21,0-.1a2.18,2.18,0,0,1-.81.91l.2.16c-.77.35-.62.92-1.37,1.18l0,0c-.19,1.1-1.33.7-1.56,1.8,0-.14-.12,0-.16-.1-.25.36-.55.71-.21,1.05-.22.22-.29.08-.45,0,.15.14,0,.4-.13.59l0-.14-.43.56.39.18c-.34.19-.43-.27-.6.05l.24.23c-.4.33-1,.2-1.5.39-1.53,1.43-2.36,3.66-4.06,4.74l-.25-.1c-.31-.21.08.76-.23.6l0,.28c-.09,0-.23.06-.22-.07-.14.15-.1.19-.11.38l-.32,0c-.65.52-.77,1.33-1.37,1.95-1,.52-1.88,2.33-2.35,3.38-.51,1.57-2.76,2.22-3.18,3.91-.07,0-.05.19,0,.22l-.88,1.19a9.1,9.1,0,0,0-.56.87,8.58,8.58,0,0,0-.78,1.72c-.32,1.13.08,1.85,2.81.44l0,.07c.59-.56.9-.94.88-1.62.46.21.41-.51.65-.57l0,0c0-.62.82-.64.81-1.22,0,0,.12.12.07.21.14-.31.33-.75.57-.6.42-.7,1.18-1.54,1.12-2.23l0,.08c-.07-.42.19-.34.27-.69h.08c0-.44.53-.78.58-1.07l.16.1.36-.54-.18.17c-.37-.39.55-.19.57-.76.32-.3-.31-1.37.18-1.57-.06-.32.19.4.25,0,.22.16,0,.22.26.29.1-.33.54-.23.64-.65l.18.12c0-.64.83-.57.75-1.06.21-.52.72.13.75-.56l.35,0c.19-.15-.16-.35.11-.46.13.13.32-.16.36.07.59-.26.47-1.17,1.34-1.44-.16-.35.25-.51.14-.78.13.09.53-.57.49,0,0,.05-.05.09-.09.05l.12.18c.58-.07.37-.74.71-1-.14.05-.24.18-.27,0l.29-.28.08.18.48-.37-.22-.09c.28-.14.63,0,.62-.42,0-.23-.4,0-.25-.27a8.21,8.21,0,0,0,1.34-.79c-.21-.14-.11-.23,0-.36l.17.13c.15-.59.47.18.67-.36l.07.13-.23-.41c0-.64.5.13.45-.66-.12.18-.4-.26-.16-.38l.1.19c.07-.13,0-.23.14-.27,0,.14.18.25.31.07l.08.28v-.55c.38-.06.52-.6.82-.48,0,0,.56-.37.45-.7,0,.23.35,0,.44.26,0-.27.19-.77.51-.73v0c.71-.34.69-1.12,1.38-1.37-.19-.16.16-.31-.12-.48.28-.71,1.36-.39.88-1.28.2-.25.43-.09.59-.16l0,.09a5.43,5.43,0,0,1,.84-.87c.1-.22-.18-.58.19-.76,0,.22.13.09.24,0,0,.09,0,.15.19.12a.4.4,0,0,1,0-.16l0,0c.14-.21.07-.23,0-.17s0,0-.1-.06c.34,0,.52-.48.75-.27a18,18,0,0,0,1.1-1.63c.15.08.13.28,0,.44l.29-.32c.15.18-.1.26-.18.38.64-.05.59-1,1.28-1.1l0-.22h.05a.36.36,0,0,1,0-.35c.19.1.28.36.51.16.3,0,.46-.51.64-.79-.15.08-.18,0-.17-.14s.31,0,.35-.14l.18.2c-.21-.16.14-.46.11-.58.19.1-.08.28,0,.42l.69-.59c.13-.37-.21-.17-.23-.45.19-.22.29-.54.65-.62l-.23-.12a1.19,1.19,0,0,1,1-.68c1-2,.8-2.67.31-2.83a2.08,2.08,0,0,0-1.24.18C149.31,166.86,149.08,167.94,147.7,169.28Z"/><path class="cls-9" d="M103.07,185.56l.26-.13S103.22,185.43,103.07,185.56Z"/><path class="cls-9" d="M141.21,125s0,0,0-.07S141.2,125,141.21,125Z"/><path class="cls-9" d="M112.46,178.89h0l0,.08Z"/><path class="cls-9" d="M102.69,190.19c1.55-1.28,2.53-2.09,3.47-3a20.09,20.09,0,0,0,3-3.49,55.73,55.73,0,0,0,3.28-4.84c.22-.92,1.34-2.05,1.66-3.09l.39-.23a2,2,0,0,1,.56-1l0,0c.16-.53.54-1,.62-1.27l0,0,.31-.57,0,.14a10.63,10.63,0,0,1,1.33-2.4l-.25-.07c1.15-1.42,1-2.26,2.14-3.51l0,.05c.44-2.11,2-2.62,2.47-4.78-.06.27.16,0,.2,0,.41-.89.87-1.82.45-2.07.35-.62.41-.44.62-.43-.19-.1,0-.68.28-1.17l-.05.26.7-1.43-.51.08c.5-.68.54,0,.83-.71l-.29-.15c.61-1,1.38-1.35,2.13-2.22,2.34-4.05,4-8.85,6.74-12.28l.32,0c.35.12.14-1.3.52-1.27l.11-.52c.13-.08.34-.3.29-.05a1.58,1.58,0,0,0,.28-.77l.46-.3c1.14-1.44,1.55-3,2.73-4.55a26,26,0,0,0,2.71-3.59c.47-.7.92-1.42,1.33-2.1l1.19-1.81a11.22,11.22,0,0,1,1.65-2.17c.66-.67,1.37-1.3,2.08-1.94,1.44-1.3,2.85-2.43,4-3.61.11,0,.27-.26.24-.29a8,8,0,0,1,2.55-1.11l.49-.09a6.08,6.08,0,0,1,1.25,0,5.61,5.61,0,0,1,2.91,1.12c.72.54,1.06,1.2,1.45.93.15-.13.35-.55.2-1.38a5,5,0,0,0-2.4-3.09l.12,0a5.14,5.14,0,0,0-5-.08c-.18-.21-.61-.1-1,.1a7.13,7.13,0,0,1-1.09.52l0-.05c-.92.9-2.36,1.12-3,2.16a.36.36,0,0,1,.14-.36c-.61.6-1.33,1.47-1.57,1.31-.69.72-1.44,1.57-2.11,2.38a8.84,8.84,0,0,0-1.49,2.19v-.11c-.2.73-.53.73-.89,1.43-.06,0-.11,0-.11,0-.24.78-1.35,1.74-1.62,2.3l-.18-.09-.85,1.24.37-.43c.3.47-.94.72-1.31,1.8-.67.77-.3,2.3-1.09,3-.08.55-.09-.59-.35.13-.24-.13,0-.38-.23-.35-.31.68-.92.85-1.27,1.7l-.2-.09c-.32,1.21-1.44,1.74-1.55,2.61-.5,1.12-1,.35-1.29,1.66l-.5.27c-.32.44.1.52-.33,1-.13-.12-.51.58-.48.19-1,1-1.07,2.59-2.37,3.91.11.52-.52,1.2-.43,1.58-.17,0-.9,1.57-.7.52,0-.09.09-.22.14-.18l-.12-.21c-.84.7-.71,1.73-1.26,2.59.21-.23.39-.59.38-.29l-.48.81-.06-.25-.76,1.17.28-.06c-.42.54-.87.58-1,1.4,0,.39.57-.42.28.24-.56.73-1.42,1.83-2,2.82.27,0,.11.3,0,.61l-.21-.07c-.33,1.22-.63.17-1,1.36l-.08-.16.23.49c-.15,1.18-.67.32-.75,1.67.2-.44.53,0,.16.51l-.11-.24c-.12.32-.1.45-.24.63,0-.23-.21-.24-.41.2l-.07-.4-.11,1c-.54.52-.83,1.64-1.23,1.75,0,0-.86,1.26-.75,1.72,0-.36-.5.34-.59,0a3,3,0,0,1-.83,1.85l0-.09c-1.07,1.37-1.18,2.72-2.21,3.9.25.06-.29.69.09.68-.56,1.53-2.06,2.15-1.52,3.16-.34.64-.66.6-.9.89l.05-.17a25.72,25.72,0,0,1-1.44,2.35c-.19.48.15.8-.45,1.48,0-.34-.17,0-.36.26.1-.19.08-.28-.27,0a.88.88,0,0,1,0,.27s0,0,0,0c-.26.5-.16.45,0,.25,0,0,0,0,.14,0-.52.35-.91,1.35-1.2,1.23-.9,1.44-1.37,2.57-2.15,3.75-.22,0-.12-.32.08-.67l-.58.8c-.17-.15.26-.52.41-.79-1,.68-1.23,2.13-2.42,2.9l-.06.34-.08,0c.07.06,0,.38-.16.54-.28,0-.33-.33-.79.16-.5.25-1,1.12-1.47,1.66.31-.22.29-.06.22.1-.26.23-.53.2-.68.44l-.19-.19c.27.12-.51.77-.54.93-.28,0,.3-.46.27-.63-1,.83-.5.46-1.58,1.23-.47.57.25.13.1.52a4.81,4.81,0,0,1-1.65,1.12,1.68,1.68,0,0,0,.32.09,6.69,6.69,0,0,1-1.31.81,4.77,4.77,0,0,1-1.21.3c-1.93,1.27-3.21,1.77-3.8,2.22s-.5.68-.15.86a5.28,5.28,0,0,0,1.71.2c.61,0,1.12-.12,1.12-.12a11.34,11.34,0,0,0,4.85-1.88A38.22,38.22,0,0,0,102.69,190.19Z"/><path class="cls-9" d="M111.77,112.9l-.16.08S111.7,113,111.77,112.9Z"/><path class="cls-9" d="M92.08,144.11s0,0,0,0Z"/><path class="cls-9" d="M106,116.05h0v0Z"/><path class="cls-9" d="M110,109.82c-1.08,1.62-1.74,1.83-2.59,3.66a26.62,26.62,0,0,0-1.39,2.57c.09.57-.63,1-.64,1.66l-.28.07a.58.58,0,0,1-.25.53l0,0c0,.31-.24.52-.25.68l0,0-.15.29,0-.09a2.82,2.82,0,0,1-.64,1.24l.23.1c-.72.63-.45,1.19-1.17,1.72l0,0c0,1.24-1.26,1.17-1.3,2.42,0-.16-.14,0-.18-.06-.21.46-.45.93,0,1.2-.2.3-.29.16-.48.1.19.12.09.43,0,.68v-.16l-.37.73.43.08c-.33.3-.48-.17-.61.23l.28.17c-.37.47-1,.49-1.5.85-1.41,1.94-2.09,4.56-3.8,6.1l-.27-.06c-.33-.16.12.82-.21.7v.31c-.1,0-.24.11-.24,0-.14.19-.1.23-.1.43l-.33.09c-.67.69-.74,1.61-1.37,2.38-1.06.73-2,2.84-2.48,4.05-.57,1.82-3,2.72-3.53,4.61-.08,0-.07.21,0,.24l-1,1.36a15.86,15.86,0,0,0-1.69,2.92c-.46,1.24-.16,2.08,2.91.39l0,.08a2.61,2.61,0,0,0,1.12-1.87c.47.2.49-.61.74-.69l0,0c0-.69.93-.79,1-1.44,0,0,.12.13.06.24.18-.37.4-.88.65-.74.49-.84,1.36-1.86,1.33-2.63l0,.08c-.06-.47.22-.4.31-.82,0,0,.07,0,.09,0,0-.49.58-1,.65-1.28l.17.09.39-.65-.19.21c-.38-.38.59-.29.62-.94.34-.39-.32-1.48.19-1.78-.06-.35.2.41.26,0,.23.14,0,.24.28.28.1-.38.57-.36.68-.84l.19.1c0-.72.86-.79.77-1.34.2-.61.76,0,.77-.77l.38-.05c.19-.2-.18-.36.1-.54.14.12.34-.24.38,0,.62-.42.44-1.4,1.34-1.91-.19-.36.24-.63.1-.9.14.06.53-.76.53-.15,0,.06,0,.12-.1.08l.14.17c.62-.23.33-.92.67-1.32-.15.09-.24.27-.29.08l.29-.39.09.18.48-.55-.24,0c.28-.23.66-.13.61-.63,0-.25-.42.12-.28-.23a9.62,9.62,0,0,0,1.32-1.26c-.24-.08-.14-.22-.1-.38l.19.09c.09-.69.52.06.66-.6l.1.13-.29-.38c0-.71.54,0,.39-.87-.1.23-.46-.15-.22-.36l.13.17c.06-.16,0-.26.11-.33,0,.15.23.21.33,0l.13.28-.07-.6c.38-.19.45-.83.78-.81,0,0,.53-.59.36-.91.08.24.37-.09.51.14-.09-.29.08-.9.4-1v0c.68-.63.52-1.47,1.19-2-.23-.09.1-.38-.22-.46.16-.87,1.33-1,.65-1.72.15-.35.42-.26.57-.4v.1a7.15,7.15,0,0,1,.68-1.26c0-.27-.31-.54,0-.88.08.22.14,0,.23-.11,0,.11,0,.17.23,0a.38.38,0,0,1,0-.18l0,0c.09-.28,0-.27-.07-.16a.14.14,0,0,0-.12,0c.35-.14.42-.74.7-.61a18.73,18.73,0,0,0,.7-2.18c.18,0,.22.23.16.44l.21-.48c.2.12,0,.33-.07.49.63-.35.32-1.29,1-1.74l-.08-.22,0,0c-.09,0-.12-.26-.09-.36.22,0,.39.24.56-.08.31-.15.33-.74.42-1.12-.13.16-.2,0-.21-.07s.3-.14.3-.31l.24.12c-.25-.06,0-.54-.06-.65.22,0,0,.33.11.44l.51-1c0-.44-.26-.07-.37-.35.12-.32.12-.69.46-1h-.27a1.65,1.65,0,0,1,.79-1.22c.63-5.07-1.83-2.18-1.83-2.18C110.79,106.64,110.93,107.82,110,109.82Z"/><circle class="cls-9" cx="69.82" cy="180.57" r="4.86"/><path class="cls-9" d="M73.63,185.34l-.13,0A.1.1,0,0,0,73.63,185.34Z"/><path class="cls-9" d="M71.44,174.65l0,0Z"/><path class="cls-9" d="M70,183.31h0v0Z"/><path class="cls-9" d="M72.13,182.51c-.56.41-.93.1-1.36.5-.26.07-.53.23-.82.3-.13.37-.38,0-.58.28l0-.22c-.08.1-.17.16-.2,0l0-.06c-.12.13-.2,0-.26.08l0-.06h-.11l0-.07a.33.33,0,0,1-.45-.09l-.11.22c-.13-.39-.53,0-.55-.5l0,0c-.36.13-.39-.08-.4-.26s0-.36-.35-.36c.1,0,.1-.09.16-.11-.16-.11-.25-.27-.71-.07-.06-.13.09-.17.26-.25a.28.28,0,0,1-.38-.11l.1,0a1.64,1.64,0,0,1-.16-.29l-.37.17c.06-.21.46-.16.32-.31l-.32.07c0-.27.5-.48.74-.69.06-.41-.05-.86,0-1.33a1.05,1.05,0,0,1,.79-1l.2.15c.26.25-.22-.54,0-.31l0-.2c.06,0,.15.06.17.15s0-.08,0-.21l.21.13c.35,0,.4-.54.79-.58a1,1,0,0,0,.84,0c.3-.1.64-.23.91-.29.42-.19.75.2.94.57s.28.73.72.77c0,0,.1,0,.13,0a2.94,2.94,0,0,1,.3.55s.09.16.2.38a3.51,3.51,0,0,0,.46.73,1,1,0,0,0,.88.39c.38-.06,1-.35,1.53-1.58h.08c0-.67-.14-1.12-.69-1.31.39-.3-.23-.49-.18-.69h0c-.52-.09-.26-.86-.79-.91,0,0,.14-.11.21,0-.26-.16-.61-.32-.45-.56-.57-.4-1.41-1-2-.68l.06-.06c-.34.21-.31-.08-.62,0a.54.54,0,0,0,0-.08c-.32.22-.74-.11-1,0v-.19H70l.19,0c-.08.52-.38-.35-.75,0-.38,0-.52,1.15-.85,1-.08.28,0-.42-.14-.18-.08-.26.07-.19,0-.39-.19.18-.47-.15-.7.13l-.09-.2c-.21.51-.83.07-.88.55-.26.36-.6-.37-.72.23l-.33-.11c-.18.1.13.36-.12.4-.12-.14-.31.08-.33-.13-.59.19-.39,1-1.13,1.3.22.3-.12.49.08.71-.15-.06-.29.59-.45.11,0,0,0-.09.07-.06l-.17-.13c-.53.22-.08.75-.23,1.09.1-.09.12-.24.23-.1l-.11.32-.16-.11a4.4,4.4,0,0,0-.21.5l.23,0c-.15.23-.54.29-.26.61.17.15.31-.21.36.06a3.16,3.16,0,0,0-.41,1.3c.24-.07.25,0,.31.16l-.2,0c.37.42-.45.27-.11.69h.31c.51.28-.36.36.34.62-.1-.16.41-.24.4,0l-.21,0c.08.1.17.1.17.19s-.29.08-.18.24h-.29l.49.15c-.09.35.39.55.2.81,0,0,.23.56.56.46-.23,0-.07.32-.31.41.28,0,.7.17.68.45h0c.36.66,1.09.45,1.45,1,.09-.23.31,0,.38-.29.62,0,.81,1,1.28.13.26,0,.24.3.37.37l-.07,0c.5,0,.64,0,1,0,.19-.08.22-.53.52-.44-.09.19,0,.15.15.14-.07,0-.09.1.07.22a.32.32,0,0,1,.08-.13.09.09,0,0,1,0,0c.19-.08.15-.14.06-.15a.21.21,0,0,0,0-.11c.22.21.54-.1.63.2a3.57,3.57,0,0,0,1.23-.95.31.31,0,0,1,0,.42l.29-.21c.1.21-.13.21-.21.3.57.15.6-.71,1.16-.71l0-.21h0a.38.38,0,0,1,0-.31c.18.11.29.36.47.19.28,0,.34-.46.41-.71-.11.08-.17,0-.18-.12s.27,0,.25-.13l.22.15c-.22-.12,0-.41-.1-.51.21.06,0,.25.14.36a3.9,3.9,0,0,0,.37-.62c0-.32-.24-.09-.39-.31.06-.21,0-.47.22-.61l-.25,0a.67.67,0,0,1,.35-.77,2.14,2.14,0,0,0-1.07-1.27,1,1,0,0,0-.83-.06,1.36,1.36,0,0,0-.47.24l-.16.14c-.29.23-.32.38-.27.63A1.59,1.59,0,0,1,72.13,182.51Z"/></svg>