<?xml version="1.0" encoding="utf-8"?>
<!-- Generator: Adobe Illustrator 25.2.1, SVG Export Plug-In . SVG Version: 6.00 Build 0)  -->
<svg version="1.1" id="Layer_1" xmlns="http://www.w3.org/2000/svg" xmlns:xlink="http://www.w3.org/1999/xlink" x="0px" y="0px"
	 viewBox="0 0 1242 2208" style="enable-background:new 0 0 1242 2208;" xml:space="preserve">
<style type="text/css">
	.st0{fill:#D6D880;}
	.st1{fill:#9BDDAC;}
	.st2{fill:#C4EABB;}
	.st3{opacity:0.7;fill:#BAB75B;enable-background:new    ;}
	.st4{fill:#826B54;}
	.st5{opacity:0.7;fill:#76A581;enable-background:new    ;}
	.st6{opacity:0.7;fill:#A3BF99;enable-background:new    ;}
	.st7{fill:#562113;}
	.st8{fill:#C16157;}
	.st9{opacity:0.7;fill:#CE8D89;enable-background:new    ;}
	.st10{fill:#AD5145;}
	.st11{fill:#C46E62;}
	.st12{fill:#A54B42;}
	.st13{fill:#CE8D89;}
	.st14{fill:#C65F4E;}
	.st15{fill:#EDE3D3;}
	.st16{fill:none;stroke:#7D29CE;stroke-width:8;stroke-linecap:round;stroke-miterlimit:10;}
	.st17{fill:none;stroke:#685A4D;stroke-width:0.32;stroke-miterlimit:10;}
	.st18{fill:none;stroke:#F49B19;stroke-width:8;stroke-linecap:round;stroke-miterlimit:10;}
	.st19{fill:none;stroke:#006856;stroke-width:8;stroke-linecap:round;stroke-miterlimit:10;}
</style>
<rect y="1629.1" class="st0" width="1242" height="578.9"/>
<rect y="1242.4" class="st1" width="1242" height="398.9"/>
<rect class="st2" width="1242" height="1244.7"/>
<path class="st3" d="M0,2136.1c190.4-2,391.4-9.7,601.9-24.8c225.6-16.1,439.3-39.2,640-66.7l0.1,163.3H0V2136.1z"/>
<rect y="1233.6" class="st4" width="1242" height="22.2"/>
<path class="st5" d="M0,1373.6c141.6,54.4,262.9,80.7,348.7,94.6c240.4,39,438.5,18.7,622.1-1.3c113.7-12.4,207.1-28.6,271.2-41
	l2.1,198.8L1.9,1629.1L0,1373.6z"/>
<rect y="1598" class="st4" width="1242" height="43.3"/>
<path class="st6" d="M0,262.4c145.6-19.9,291.4-37.3,437.5-52.2C704.9,182.9,973,164,1242,153.6V0H0V262.4z"/>
<rect x="571" y="1711.8" class="st7" width="27.9" height="78.4"/>
<rect x="781.7" y="1711.6" class="st7" width="27.9" height="78.4"/>
<rect x="606.5" y="1712" class="st7" width="23" height="56.5"/>
<rect x="817.1" y="1712" class="st7" width="23" height="56.5"/>
<path class="st8" d="M584.5,1186.7h231.3c19.7,0,35.7,16,35.7,35.7v55.7c0,19.7-16,35.7-35.7,35.7H584.5c-19.7,0-35.7-16-35.7-35.7
	v-55.7C548.8,1202.7,564.8,1186.7,584.5,1186.7z"/>
<path class="st9" d="M593.3,1223.4c11.5,25.2,47.1,31.5,76.6,36.8c65.7,11.7,147,0.3,159.3-1.5c7.7-1.1,14.7-2.3,20.9-2.7v-33.6
	c-0.1-19.7-16-35.7-35.7-35.7H591.9C589.4,1198.2,587.7,1211.2,593.3,1223.4z"/>
<rect x="1094.4" y="1305.4" class="st10" width="31.1" height="495.6"/>
<rect x="47.4" y="1305.4" class="st11" width="824.4" height="406.7"/>
<path class="st12" d="M47.4,1305.4h824.4v62.2L78.6,1529.8v346.7H47.4V1305.4z"/>
<path class="st13" d="M47.2,1305.4H23v-17.8h891.1v17.8H47.2z"/>
<rect x="871.9" y="1305.4" class="st13" width="31.1" height="571.1"/>
<rect x="914.1" y="1287.6" class="st14" width="226" height="17.8"/>
<polygon class="st8" points="903,1712 1103,1663.2 1103,1305.4 903,1305.4 "/>
<path class="st12" d="M903,1305.4h200v93.5l-200,75.4V1305.4z"/>
<rect x="248.1" y="1712" class="st12" width="31.1" height="88.9"/>
<path class="st15" d="M356.7,1218.2H104.9c-3.3-4.8-7.9-13.2-7.8-23.8c0.1-10.2,4.5-18.3,7.8-23h251.8c-4.2,6.4-6.7,13.8-7.1,21.5
	C349.1,1204,353.4,1212.8,356.7,1218.2z"/>
<path class="st16" d="M365.5,1172.9H104.7c-4.7,6.8-7.3,14.8-7.5,23c-0.1,10.6,4.3,19,7.5,23.8h260.9"/>
<line class="st17" x1="106.3" y1="1182.4" x2="175.3" y2="1182.4"/>
<line class="st17" x1="117.9" y1="1189.8" x2="200.9" y2="1189.8"/>
<line class="st17" x1="349.6" y1="1194.8" x2="274.4" y2="1194.8"/>
<line class="st17" x1="350" y1="1184.5" x2="244" y2="1184.5"/>
<line class="st17" x1="350" y1="1202.9" x2="325.1" y2="1202.9"/>
<line class="st17" x1="350" y1="1189.8" x2="337.5" y2="1189.8"/>
<line class="st17" x1="125.6" y1="1196.3" x2="100.7" y2="1196.3"/>
<line class="st17" x1="354.7" y1="1212.5" x2="249.1" y2="1212.5"/>
<line class="st17" x1="178.2" y1="1207.1" x2="103.4" y2="1207.1"/>
<path class="st15" d="M333.9,1281.4H128c-8.5-17.5-8.5-37.9,0-55.4h205.9C326.1,1243.7,326.1,1263.8,333.9,1281.4z"/>
<path class="st18" d="M341.1,1227.9H127.8c-8.2,17.5-8.2,37.8,0,55.4h213.3"/>
<line class="st17" x1="129.1" y1="1239.1" x2="185.5" y2="1239.1"/>
<line class="st17" x1="138.6" y1="1247.9" x2="206.4" y2="1247.9"/>
<line class="st17" x1="328" y1="1253.7" x2="266.5" y2="1253.7"/>
<line class="st17" x1="328.4" y1="1241.6" x2="241.7" y2="1241.6"/>
<line class="st17" x1="328.4" y1="1263.3" x2="308" y2="1263.3"/>
<line class="st17" x1="328.4" y1="1247.9" x2="318.2" y2="1247.9"/>
<line class="st17" x1="144.8" y1="1255.6" x2="124.5" y2="1255.6"/>
<line class="st17" x1="332.2" y1="1274.7" x2="245.9" y2="1274.7"/>
<line class="st17" x1="187.9" y1="1268.3" x2="126.7" y2="1268.3"/>
<path class="st15" d="M344.3,1162.5H166.5c-7.3-21.2-7.3-44.2,0-65.4h177.8C337.5,1118.4,337.5,1141.2,344.3,1162.5z"/>
<path class="st19" d="M350.5,1099.4H166.3c-7.1,21.2-7.1,44.2,0,65.4h184.2"/>
<line class="st17" x1="167.5" y1="1112.5" x2="216.2" y2="1112.5"/>
<line class="st17" x1="175.7" y1="1122.9" x2="234.2" y2="1122.9"/>
<line class="st17" x1="339.2" y1="1129.8" x2="286.1" y2="1129.8"/>
<line class="st17" x1="339.5" y1="1115.4" x2="264.7" y2="1115.4"/>
<line class="st17" x1="339.5" y1="1141.1" x2="321.9" y2="1141.1"/>
<line class="st17" x1="339.5" y1="1122.9" x2="330.7" y2="1122.9"/>
<line class="st17" x1="181.1" y1="1132" x2="163.5" y2="1132"/>
<line class="st17" x1="342.8" y1="1154.5" x2="268.3" y2="1154.5"/>
<line class="st17" x1="218.3" y1="1147" x2="165.4" y2="1147"/>
</svg>
