<?xml version="1.0" encoding="utf-8"?>
<!-- Generator: Adobe Illustrator 25.2.1, SVG Export Plug-In . SVG Version: 6.00 Build 0)  -->
<svg version="1.1" id="Layer_1" xmlns="http://www.w3.org/2000/svg" xmlns:xlink="http://www.w3.org/1999/xlink" x="0px" y="0px"
	 viewBox="0 0 279.7 103.9" style="enable-background:new 0 0 279.7 103.9;" xml:space="preserve">
<style type="text/css">
	.st0{fill:#EDE3D3;}
	.st1{fill:none;stroke:#003960;stroke-width:11.33;stroke-linecap:round;stroke-miterlimit:10;}
	.st2{fill:none;stroke:#685A4D;stroke-width:0.45;stroke-miterlimit:10;}
</style>
<g id="Layer_2_1_">
	<g id="Layer_1-2">
		<path class="st0" d="M265.3,95.1H13.5c-10.4-30-10.4-62.6,0-92.6h251.8C255.7,32.6,255.7,65,265.3,95.1z"/>
		<path class="st1" d="M274,5.7H13.2c-10.1,30-10.1,62.5,0,92.6H274"/>
		<line class="st2" x1="14.8" y1="24.3" x2="83.9" y2="24.3"/>
		<line class="st2" x1="26.4" y1="39" x2="109.4" y2="39"/>
		<line class="st2" x1="258.1" y1="48.8" x2="182.9" y2="48.8"/>
		<line class="st2" x1="258.5" y1="28.4" x2="152.5" y2="28.4"/>
		<line class="st2" x1="258.5" y1="64.8" x2="233.6" y2="64.8"/>
		<line class="st2" x1="258.5" y1="39" x2="246.1" y2="39"/>
		<line class="st2" x1="34.1" y1="52" x2="9.2" y2="52"/>
		<line class="st2" x1="263.2" y1="83.8" x2="157.6" y2="83.8"/>
		<line class="st2" x1="86.8" y1="73.2" x2="11.9" y2="73.2"/>
	</g>
</g>
<g>
	<path d="M51.3,68.4V48.7l1.4-4.8h9v4.8v19.7H51.3z M75.3,68.4V40.3c0-1.9-0.4-3.2-1.3-4c-0.8-0.8-2-1.2-3.6-1.2H51.7v-7.8h21.6
		c2.4,0,4.5,0.5,6.4,1.4c1.9,0.9,3.3,2.4,4.4,4.3c1.1,2,1.6,4.6,1.6,7.8v27.6H75.3z"/>
	<path d="M92.4,68.4l5-27.7l-5.8-13.4h10.8l4.8,13.9l-4.5,27.2H92.4z M108.2,68.4l0.9-7.8c3.6,0.8,6.3,0.7,8.3-0.1
		c2-0.8,3.3-2.4,4.1-4.6c0.8-2.3,1.2-5.1,1.1-8.4c0-3-0.3-5.5-0.9-7.3c-0.6-1.9-1.5-3.2-2.7-4.1c-1.2-0.9-2.7-1.3-4.4-1.3
		c-1.3,0-2.5,0.3-3.5,0.8c-1.1,0.6-1.9,1.3-2.6,2.3c-0.7,1-1.1,2.2-1.3,3.6l-2.4-4.5c1-3.6,2.5-6.3,4.7-8c2.2-1.7,4.6-2.5,7.2-2.5
		c2.5,0,4.8,0.4,6.7,1.3s3.6,2.1,4.9,3.9c1.3,1.7,2.4,3.9,3.1,6.6c0.7,2.6,1,5.7,1,9.2c0,5.3-0.9,9.7-2.8,13.2
		c-1.9,3.6-4.7,6-8.3,7.4C117.8,69.5,113.4,69.6,108.2,68.4z"/>
	<path d="M139.7,53.2v-6.3V35.7l-0.9-8.4h10.4l0.9,8.4v11.2l-0.1,4.5L139.7,53.2z"/>
	<path d="M172.9,68.4V43.4c0-1.9,0.2-3.5,0.5-5c0.4-1.4,0.9-2.6,1.5-3.5h-18.4v-7.8h33.8V35h-5.6c-0.5,1.2-0.9,2.6-1.1,4.1
		c-0.2,1.6-0.3,3-0.3,4.3v24.9H172.9z"/>
	<path d="M196.1,82.8V48.3l1.4-5h9v4.9v34.6H196.1z M211.4,68.4l-0.8-7.8c1.5-0.1,2.9-0.5,4.1-1c1.2-0.5,2.2-1.2,3.1-2.2
		c0.9-1,1.5-2.3,2-3.9c0.5-1.6,0.8-3.6,0.9-6l0.9-12.5h-25.1v-7.8h36.2l-0.4,6.7l-0.8,10.9c-0.1,3.3-0.6,6.3-1.4,9.1
		c-0.8,2.8-2,5.3-3.5,7.5s-3.6,3.9-6.1,5.1C218.2,67.7,215.1,68.4,211.4,68.4z"/>
</g>
</svg>
