<?xml version="1.0" encoding="utf-8"?>
<!-- Generator: Adobe Illustrator 25.2.1, SVG Export Plug-In . SVG Version: 6.00 Build 0)  -->
<svg version="1.1" id="Layer_1" xmlns="http://www.w3.org/2000/svg" xmlns:xlink="http://www.w3.org/1999/xlink" x="0px" y="0px"
	 viewBox="0 0 280 103.9" style="enable-background:new 0 0 280 103.9;" xml:space="preserve">
<style type="text/css">
	.st0{fill:#EDE3D3;}
	.st1{fill:none;stroke:#003960;stroke-width:11.33;stroke-linecap:round;stroke-miterlimit:10;}
	.st2{fill:none;stroke:#685A4D;stroke-width:0.45;stroke-miterlimit:10;}
</style>
<g id="Layer_2_1_">
	<g id="Layer_1-2">
		<path class="st0" d="M14.8,95.1h251.8c10.4-30,10.4-62.6,0-92.6H14.8c4.4,13.8,6.8,28.1,7.1,42.5C22.3,62,19.9,78.9,14.8,95.1z"/>
		<path class="st1" d="M6,5.7h260.8c10.1,30,10.1,62.5,0,92.6H6"/>
		<line class="st2" x1="265.2" y1="24.3" x2="196.1" y2="24.3"/>
		<line class="st2" x1="253.6" y1="39" x2="170.6" y2="39"/>
		<line class="st2" x1="21.9" y1="48.8" x2="97.1" y2="48.8"/>
		<line class="st2" x1="21.5" y1="28.4" x2="127.5" y2="28.4"/>
		<line class="st2" x1="21.5" y1="64.8" x2="46.4" y2="64.8"/>
		<line class="st2" x1="21.5" y1="39" x2="34" y2="39"/>
		<line class="st2" x1="245.9" y1="52" x2="270.8" y2="52"/>
		<line class="st2" x1="16.8" y1="83.8" x2="122.4" y2="83.8"/>
		<line class="st2" x1="193.3" y1="73.2" x2="268.1" y2="73.2"/>
	</g>
</g>
<g>
	<path d="M46.9,75.1V47c0-1.9-0.4-3.2-1.3-4c-0.8-0.8-2.1-1.2-3.6-1.2H27.9V34h17c2.4,0,4.5,0.5,6.4,1.4c1.9,0.9,3.3,2.4,4.4,4.3
		c1.1,2,1.6,4.6,1.6,7.8v27.6H46.9z M27.9,75.1v-7.8h34.2v7.8H27.9z"/>
	<path d="M68.6,75.1V42.4L67.8,34h10.4l0.9,8.4v32.7H68.6z"/>
	<path d="M91.2,75.8L85.8,34h9.9l4,33.3c3.6-0.2,6.6-0.9,9.1-2c2.4-1.1,4.4-2.5,5.9-4.3c1.5-1.8,2.5-3.9,3.1-6.3
		c0.6-2.4,0.9-5.1,0.9-8.1L118.5,34h10.4l0.1,12c0,6.6-1.2,12.2-3.9,16.7c-2.6,4.5-6.7,7.9-12.3,10.1C107.2,75,100,76,91.2,75.8z
		 M97.1,59.4l-2.4-6.5c2.2-0.6,3.9-1.4,5-2.5s1.9-2.6,2.3-4.4c0.4-1.9,0.6-4.3,0.5-7.2V34h9.9v4.5c0,3.4-0.5,6.5-1.4,9.2
		c-0.9,2.7-2.4,5-4.6,6.9C104.2,56.6,101.1,58.2,97.1,59.4z"/>
	<path d="M149.6,75.1V55.4l1.4-4.8h9v4.8v19.7H149.6z M173.6,75.1V47c0-1.9-0.4-3.2-1.3-4c-0.8-0.8-2-1.2-3.6-1.2H150V34h21.6
		c2.4,0,4.5,0.5,6.4,1.4c1.9,0.9,3.3,2.4,4.4,4.3c1.1,2,1.6,4.6,1.6,7.8v27.6H173.6z"/>
	<path d="M195.2,75.8l-4-34.1l9.9-4.6l3.2,29.4c2.1-0.2,3.9-0.5,5.4-1s2.8-1.1,3.8-1.9c1-0.8,1.8-1.8,2.4-3c0.6-1.2,1-2.6,1.2-4.1
		s0.3-3.4,0.2-5.4v-2.2c0-1.5-0.2-2.8-0.7-3.8c-0.5-1.1-1.1-1.9-1.9-2.5c-0.8-0.6-1.8-0.9-3-0.9h-20.3l-1-7.8h22.1
		c4.8,0,8.4,1.3,11,4c2.6,2.7,3.9,6.3,4.1,10.9l0.1,2.4c0.1,4.5-0.5,8.2-2,11.3c-1.5,3-3.6,5.5-6.5,7.4s-6.3,3.3-10.3,4.2
		C204.6,75.1,200.2,75.6,195.2,75.8z"/>
	<path d="M233.7,75.1v-7.8h10.5V46.5c0-1.9-0.3-3.1-1-3.8c-0.7-0.7-1.7-1.1-2.9-1.2l-5-0.7l1.3-7.6l9,1.2c3,0.4,5.2,1.6,6.8,3.8
		c1.5,2.1,2.3,4.9,2.3,8.2v28.9H233.7z"/>
</g>
</svg>
